<svg width="55" height="68" viewBox="0 0 55 68" fill="none" xmlns="http://www.w3.org/2000/svg">
<path d="M22.2488 37.1941H18.8259C15.9849 37.1941 13.6916 34.9007 13.6916 32.0597C13.6916 29.2187 15.9849 26.9254 18.8259 26.9254H22.2488V23.5025C22.2488 20.6615 24.5421 18.3682 27.3831 18.3682C30.2241 18.3682 32.5174 20.6615 32.5174 23.5025V26.9254H35.9403C38.7813 26.9254 41.0747 29.2187 41.0747 32.0597C41.0747 34.9007 38.7813 37.1941 35.9403 37.1941H32.5174V40.6169C32.5174 43.4579 30.2241 45.7513 27.3831 45.7513C24.5421 45.7513 22.2488 43.4579 22.2488 40.6169V37.1941ZM24.9871 0.432231L4.44976 8.13373C1.7799 9.1606 0 11.6935 0 14.5688V30.6563C0 47.9419 11.672 64.0637 27.3831 68C43.0942 64.0637 54.7662 47.9419 54.7662 30.6563V14.5688C54.7638 13.1758 54.3365 11.8168 53.5414 10.6731C52.7463 9.52942 51.6213 8.65548 50.3165 8.16796L29.7791 0.46646C28.2388 -0.14966 26.5274 -0.14966 24.9871 0.432231Z" fill="white"/>
</svg>
