<svg width="204" height="144" viewBox="0 0 204 144" fill="none" xmlns="http://www.w3.org/2000/svg">
<g filter="url(#filter0_d_0_91)">
<rect x="50" y="50" width="44" height="44" rx="12" fill="#2972FE" fill-opacity="0.1"/>
<mask id="mask0_0_91" style="mask-type:alpha" maskUnits="userSpaceOnUse" x="64" y="62" width="16" height="20">
<path fill-rule="evenodd" clip-rule="evenodd" d="M78.0015 70.75V75.75L79.2915 77.04C79.9215 77.67 79.4715 78.75 78.5815 78.75H65.4115C64.5215 78.75 64.0815 77.67 64.7115 77.04L66.0015 75.75V70.75C66.0015 67.67 67.6315 65.11 70.5015 64.43V63.75C70.5015 62.92 71.1715 62.25 72.0015 62.25C72.8315 62.25 73.5015 62.92 73.5015 63.75V64.43C76.3615 65.11 78.0015 67.68 78.0015 70.75ZM74.0015 79.75C74.0015 80.85 73.1015 81.75 72.0015 81.75C70.8915 81.75 70.0015 80.85 70.0015 79.75H74.0015Z" fill="black"/>
</mask>
<g mask="url(#mask0_0_91)">
<rect x="60" y="60" width="24" height="24" fill="#2972FE"/>
</g>
</g>
<g filter="url(#filter1_d_0_91)">
<rect x="110" y="50" width="44" height="44" rx="12" fill="#2972FE" fill-opacity="0.1"/>
<mask id="mask1_0_91" style="mask-type:alpha" maskUnits="userSpaceOnUse" x="121" y="63" width="22" height="18">
<path d="M133.35 80.3072C132.59 80.9972 131.42 80.9972 130.66 80.2972L130.55 80.1972C125.3 75.4472 121.87 72.3372 122 68.4572C122.06 66.7572 122.93 65.1272 124.34 64.1672C126.98 62.3672 130.24 63.2072 132 65.2672C133.76 63.2072 137.02 62.3572 139.66 64.1672C141.07 65.1272 141.94 66.7572 142 68.4572C142.14 72.3372 138.7 75.4472 133.45 80.2172L133.35 80.3072Z" fill="black"/>
</mask>
<g mask="url(#mask1_0_91)">
<rect x="120" y="60" width="24" height="24" fill="#2972FE"/>
</g>
</g>
<defs>
<filter id="filter0_d_0_91" x="0" y="0" width="144" height="144" filterUnits="userSpaceOnUse" color-interpolation-filters="sRGB">
<feFlood flood-opacity="0" result="BackgroundImageFix"/>
<feColorMatrix in="SourceAlpha" type="matrix" values="0 0 0 0 0 0 0 0 0 0 0 0 0 0 0 0 0 0 127 0" result="hardAlpha"/>
<feOffset/>
<feGaussianBlur stdDeviation="25"/>
<feColorMatrix type="matrix" values="0 0 0 0 0.352941 0 0 0 0 0.423529 0 0 0 0 0.917647 0 0 0 0.08 0"/>
<feBlend mode="normal" in2="BackgroundImageFix" result="effect1_dropShadow_0_91"/>
<feBlend mode="normal" in="SourceGraphic" in2="effect1_dropShadow_0_91" result="shape"/>
</filter>
<filter id="filter1_d_0_91" x="60" y="0" width="144" height="144" filterUnits="userSpaceOnUse" color-interpolation-filters="sRGB">
<feFlood flood-opacity="0" result="BackgroundImageFix"/>
<feColorMatrix in="SourceAlpha" type="matrix" values="0 0 0 0 0 0 0 0 0 0 0 0 0 0 0 0 0 0 127 0" result="hardAlpha"/>
<feOffset/>
<feGaussianBlur stdDeviation="25"/>
<feColorMatrix type="matrix" values="0 0 0 0 0.352941 0 0 0 0 0.423529 0 0 0 0 0.917647 0 0 0 0.08 0"/>
<feBlend mode="normal" in2="BackgroundImageFix" result="effect1_dropShadow_0_91"/>
<feBlend mode="normal" in="SourceGraphic" in2="effect1_dropShadow_0_91" result="shape"/>
</filter>
</defs>
</svg>
