<svg width="196" height="191" viewBox="0 0 196 191" fill="none" xmlns="http://www.w3.org/2000/svg">
<path d="M94.7902 185.359C95.5374 187.77 94.8401 190.4 93.3504 190.862C91.8606 191.323 90.4403 190.673 89.693 188.262C88.9458 185.851 89.5296 184.614 91.0193 184.152C92.509 183.69 94.0429 182.948 94.7902 185.359Z" fill="#2972FE" fill-opacity="0.2"/>
<path d="M190.197 179.428C186.755 182.549 181.826 183.43 179.897 181.304C177.969 179.177 177.95 176.303 181.391 173.182C184.832 170.061 187.35 170.073 189.279 172.199C191.207 174.326 193.638 176.307 190.197 179.428Z" fill="#2972FE" fill-opacity="0.2"/>
<path d="M21.4534 174.691C16.6816 179.019 8.39752 178.642 4.15929 173.969C-0.0789403 169.295 -1.27388 164.021 3.49789 159.694C8.26965 155.367 12.6876 156.405 16.9258 161.079C21.1641 165.752 26.2251 170.364 21.4534 174.691Z" fill="#2972FE" fill-opacity="0.2"/>
<path d="M40.8602 102.938C41.6075 105.349 40.9102 107.979 39.4204 108.441C37.9307 108.903 36.5103 108.253 35.7631 105.842C35.0158 103.43 35.5996 102.193 37.0893 101.731C38.5791 101.27 40.113 100.527 40.8602 102.938Z" fill="#2972FE" fill-opacity="0.2"/>
<rect x="56.438" y="55.4891" width="80.1049" height="80.1049" rx="28.8" fill="url(#paint0_linear_2844_85164)"/>
<mask id="mask0_2844_85164" style="mask-type:alpha" maskUnits="userSpaceOnUse" x="79" y="78" width="35" height="35">
<path fill-rule="evenodd" clip-rule="evenodd" d="M83.1397 78.8532H109.841C111.677 78.8532 113.179 80.3552 113.179 82.1909V102.217C113.179 104.053 111.677 105.555 109.841 105.555H86.4774L79.802 112.23L79.8187 82.1909C79.8187 80.3552 81.3039 78.8532 83.1397 78.8532ZM104.835 90.5352H88.1462C87.2284 90.5352 86.4774 91.2862 86.4774 92.204C86.4774 93.1219 87.2284 93.8729 88.1462 93.8729H104.835C105.753 93.8729 106.504 93.1219 106.504 92.204C106.504 91.2862 105.753 90.5352 104.835 90.5352ZM98.1593 98.8794H88.1462C87.2284 98.8794 86.4774 98.1284 86.4774 97.2106C86.4774 96.2927 87.2284 95.5417 88.1462 95.5417H98.1593C99.0772 95.5417 99.8282 96.2927 99.8282 97.2106C99.8282 98.1284 99.0772 98.8794 98.1593 98.8794ZM88.1462 88.8663H104.835C105.753 88.8663 106.504 88.1153 106.504 87.1975C106.504 86.2796 105.753 85.5286 104.835 85.5286H88.1462C87.2284 85.5286 86.4774 86.2796 86.4774 87.1975C86.4774 88.1153 87.2284 88.8663 88.1462 88.8663Z" fill="black"/>
</mask>
<g mask="url(#mask0_2844_85164)">
<rect x="76.4642" y="75.5153" width="40.0524" height="40.0524" fill="white"/>
</g>
<path d="M171.94 62.6266C171.419 56.0474 176.949 49.5627 183.433 49.0494C189.917 48.5362 194.972 50.8675 195.493 57.4467C196.014 64.026 192.381 66.9599 185.897 67.4731C179.413 67.9863 172.461 69.2059 171.94 62.6266Z" fill="#2972FE" fill-opacity="0.6"/>
<path d="M8.30532 49.7538C6.99201 51.1519 3.92505 49.4627 2.33524 47.8729C0.745432 46.2831 -1.26636 43.1524 1.05031 40.8357C3.36699 38.519 6.46798 41.7251 8.05779 43.3149C9.6476 44.9048 9.61863 48.3556 8.30532 49.7538Z" fill="#2972FE" fill-opacity="0.5"/>
<path d="M72.5582 22.0269C69.1167 25.1477 64.1873 26.0288 62.259 23.9024C60.3307 21.776 60.3112 18.9012 63.7527 15.7804C67.1941 12.6595 69.712 12.6716 71.6403 14.798C73.5685 16.9243 75.9996 18.906 72.5582 22.0269Z" fill="#2972FE" fill-opacity="0.2"/>
<path d="M133.537 1.50229C134.158 3.81747 132.611 6.4984 130.329 7.10976C128.048 7.72113 126.089 7.2223 125.468 4.90713C124.848 2.59195 125.952 1.30436 128.233 0.692999C130.515 0.0816338 132.917 -0.812887 133.537 1.50229Z" fill="#2972FE" fill-opacity="0.1"/>
<defs>
<linearGradient id="paint0_linear_2844_85164" x1="136.617" y1="135.861" x2="56.512" y2="55.7565" gradientUnits="userSpaceOnUse">
<stop stop-color="#2972FE"/>
<stop offset="1" stop-color="#6499FF"/>
</linearGradient>
</defs>
</svg>
