<svg width="20" height="20" viewBox="0 0 20 20" fill="none" xmlns="http://www.w3.org/2000/svg">
<mask id="mask0_0_198" style="mask-type:alpha" maskUnits="userSpaceOnUse" x="2" y="2" width="16" height="16">
<path d="M16.0182 12.723L13.9015 12.4813C13.3932 12.423 12.8932 12.598 12.5349 12.9563L11.0015 14.4896C8.6432 13.2896 6.70987 11.3646 5.50986 8.99798L7.05153 7.45632C7.40986 7.09798 7.58486 6.59798 7.52653 6.08965L7.28486 3.98965C7.18486 3.14798 6.47653 2.51465 5.62653 2.51465H4.18486C3.2432 2.51465 2.45986 3.29798 2.5182 4.23965C2.95986 11.3563 8.65153 17.0396 15.7599 17.4813C16.7015 17.5396 17.4849 16.7563 17.4849 15.8146V14.373C17.4932 13.5313 16.8599 12.823 16.0182 12.723Z" fill="black"/>
</mask>
<g mask="url(#mask0_0_198)">
<rect x="2.5" y="2.5" width="20" height="20" fill="white"/>
</g>
</svg>
