<svg width="70" height="40" viewBox="0 0 70 40" fill="none" xmlns="http://www.w3.org/2000/svg">
<path fill-rule="evenodd" clip-rule="evenodd" d="M0 19.1304C5.21739 9.64346 19.4783 -4.77394 34.7826 2.05563C50.4348 -5.53394 64.3479 9.64346 69.5653 19.1304C64.3479 26.72 50.087 40 34.7826 40C19.4783 40 5.21739 26.72 0 19.1304ZM9.23479 18.3009C14.6331 16.4748 24.6661 13.913 34.7826 13.913C44.7774 13.913 54.6957 16.4156 60.1392 18.2365C60.9339 18.5009 60.8887 19.6243 60.087 19.8643L60.0435 19.8783C54.7826 21.4609 45.1826 24.3478 34.7826 24.3478C24.2087 24.3478 14.4644 21.5217 9.26609 19.873C8.48696 19.6261 8.46087 18.5617 9.23305 18.3009H9.23479Z" fill="white"/>
</svg>
