<svg width="380" height="51" viewBox="0 0 380 51" fill="none" xmlns="http://www.w3.org/2000/svg">
<path d="M17.1818 15.3186C17.1818 13.9128 18.3215 12.7732 19.7273 12.7732C21.1331 12.7732 22.2727 13.9128 22.2727 15.3186V35.6823C22.2727 37.0881 21.1331 38.2277 19.7273 38.2277C18.3215 38.2277 17.1818 37.0881 17.1818 35.6823V15.3186ZM7 22.955C7 21.5492 8.13964 20.4095 9.54545 20.4095C10.9513 20.4095 12.0909 21.5492 12.0909 22.955V28.0459C12.0909 29.4517 10.9513 30.5914 9.54545 30.5914C8.13964 30.5914 7 29.4517 7 28.0459V22.955ZM27.3636 2.59135C27.3636 1.18554 28.5033 0.0458984 29.9091 0.0458984C31.3149 0.0458984 32.4545 1.18554 32.4545 2.59135V43.3186C32.4545 44.7244 31.3149 45.8641 29.9091 45.8641C28.5033 45.8641 27.3636 44.7244 27.3636 43.3186V2.59135ZM37.5455 7.68226C37.5455 6.27644 38.6851 5.13681 40.0909 5.13681C41.4967 5.13681 42.6364 6.27645 42.6364 7.68226V48.4095C42.6364 49.8154 41.4967 50.955 40.0909 50.955C38.6851 50.955 37.5455 49.8153 37.5455 48.4095V7.68226ZM47.7273 15.3186C47.7273 13.9128 48.8669 12.7732 50.2727 12.7732C51.6785 12.7732 52.8182 13.9128 52.8182 15.3186V35.6823C52.8182 37.0881 51.6785 38.2277 50.2727 38.2277C48.8669 38.2277 47.7273 37.0881 47.7273 35.6823V15.3186ZM57.9091 22.955C57.9091 21.5492 59.0487 20.4095 60.4545 20.4095C61.8604 20.4095 63 21.5492 63 22.955V28.0459C63 29.4517 61.8604 30.5914 60.4545 30.5914C59.0487 30.5914 57.9091 29.4517 57.9091 28.0459V22.955Z" fill="#2972FE"/>
<path d="M79.1818 15.3186C79.1818 13.9128 80.3215 12.7732 81.7273 12.7732C83.1331 12.7732 84.2727 13.9128 84.2727 15.3186V35.6823C84.2727 37.0881 83.1331 38.2277 81.7273 38.2277C80.3215 38.2277 79.1818 37.0881 79.1818 35.6823V15.3186ZM69 22.955C69 21.5492 70.1396 20.4095 71.5455 20.4095C72.9513 20.4095 74.0909 21.5492 74.0909 22.955V28.0459C74.0909 29.4517 72.9513 30.5914 71.5455 30.5914C70.1396 30.5914 69 29.4517 69 28.0459V22.955ZM89.3636 2.59135C89.3636 1.18554 90.5033 0.0458984 91.9091 0.0458984C93.3149 0.0458984 94.4545 1.18554 94.4545 2.59135V43.3186C94.4545 44.7244 93.3149 45.8641 91.9091 45.8641C90.5033 45.8641 89.3636 44.7244 89.3636 43.3186V2.59135ZM99.5455 7.68226C99.5455 6.27644 100.685 5.13681 102.091 5.13681C103.497 5.13681 104.636 6.27645 104.636 7.68226V48.4095C104.636 49.8154 103.497 50.955 102.091 50.955C100.685 50.955 99.5455 49.8153 99.5455 48.4095V7.68226ZM109.727 15.3186C109.727 13.9128 110.867 12.7732 112.273 12.7732C113.679 12.7732 114.818 13.9128 114.818 15.3186V35.6823C114.818 37.0881 113.679 38.2277 112.273 38.2277C110.867 38.2277 109.727 37.0881 109.727 35.6823V15.3186ZM119.909 22.955C119.909 21.5492 121.049 20.4095 122.455 20.4095C123.86 20.4095 125 21.5492 125 22.955V28.0459C125 29.4517 123.86 30.5914 122.455 30.5914C121.049 30.5914 119.909 29.4517 119.909 28.0459V22.955Z" fill="#2972FE"/>
<path d="M141.182 15.3186C141.182 13.9128 142.321 12.7732 143.727 12.7732C145.133 12.7732 146.273 13.9128 146.273 15.3186V35.6823C146.273 37.0881 145.133 38.2277 143.727 38.2277C142.321 38.2277 141.182 37.0881 141.182 35.6823V15.3186ZM131 22.955C131 21.5492 132.14 20.4095 133.545 20.4095C134.951 20.4095 136.091 21.5492 136.091 22.955V28.0459C136.091 29.4517 134.951 30.5914 133.545 30.5914C132.14 30.5914 131 29.4517 131 28.0459V22.955ZM151.364 2.59135C151.364 1.18554 152.503 0.0458984 153.909 0.0458984C155.315 0.0458984 156.455 1.18554 156.455 2.59135V43.3186C156.455 44.7244 155.315 45.8641 153.909 45.8641C152.503 45.8641 151.364 44.7244 151.364 43.3186V2.59135ZM161.545 7.68226C161.545 6.27644 162.685 5.13681 164.091 5.13681C165.497 5.13681 166.636 6.27645 166.636 7.68226V48.4095C166.636 49.8154 165.497 50.955 164.091 50.955C162.685 50.955 161.545 49.8153 161.545 48.4095V7.68226ZM171.727 15.3186C171.727 13.9128 172.867 12.7732 174.273 12.7732C175.679 12.7732 176.818 13.9128 176.818 15.3186V35.6823C176.818 37.0881 175.679 38.2277 174.273 38.2277C172.867 38.2277 171.727 37.0881 171.727 35.6823V15.3186ZM181.909 22.955C181.909 21.5492 183.049 20.4095 184.455 20.4095C185.86 20.4095 187 21.5492 187 22.955V28.0459C187 29.4517 185.86 30.5914 184.455 30.5914C183.049 30.5914 181.909 29.4517 181.909 28.0459V22.955Z" fill="#2972FE" fill-opacity="0.3"/>
<path d="M203.182 15.3186C203.182 13.9128 204.321 12.7732 205.727 12.7732C207.133 12.7732 208.273 13.9128 208.273 15.3186V35.6823C208.273 37.0881 207.133 38.2277 205.727 38.2277C204.321 38.2277 203.182 37.0881 203.182 35.6823V15.3186ZM193 22.955C193 21.5492 194.14 20.4095 195.545 20.4095C196.951 20.4095 198.091 21.5492 198.091 22.955V28.0459C198.091 29.4517 196.951 30.5914 195.545 30.5914C194.14 30.5914 193 29.4517 193 28.0459V22.955ZM213.364 2.59135C213.364 1.18554 214.503 0.0458984 215.909 0.0458984C217.315 0.0458984 218.455 1.18554 218.455 2.59135V43.3186C218.455 44.7244 217.315 45.8641 215.909 45.8641C214.503 45.8641 213.364 44.7244 213.364 43.3186V2.59135ZM223.545 7.68226C223.545 6.27644 224.685 5.13681 226.091 5.13681C227.497 5.13681 228.636 6.27645 228.636 7.68226V48.4095C228.636 49.8154 227.497 50.955 226.091 50.955C224.685 50.955 223.545 49.8153 223.545 48.4095V7.68226ZM233.727 15.3186C233.727 13.9128 234.867 12.7732 236.273 12.7732C237.679 12.7732 238.818 13.9128 238.818 15.3186V35.6823C238.818 37.0881 237.679 38.2277 236.273 38.2277C234.867 38.2277 233.727 37.0881 233.727 35.6823V15.3186ZM243.909 22.955C243.909 21.5492 245.049 20.4095 246.455 20.4095C247.86 20.4095 249 21.5492 249 22.955V28.0459C249 29.4517 247.86 30.5914 246.455 30.5914C245.049 30.5914 243.909 29.4517 243.909 28.0459V22.955Z" fill="#2972FE" fill-opacity="0.3"/>
<path d="M265.182 15.3186C265.182 13.9128 266.321 12.7732 267.727 12.7732C269.133 12.7732 270.273 13.9128 270.273 15.3186V35.6823C270.273 37.0881 269.133 38.2277 267.727 38.2277C266.321 38.2277 265.182 37.0881 265.182 35.6823V15.3186ZM255 22.955C255 21.5492 256.14 20.4095 257.545 20.4095C258.951 20.4095 260.091 21.5492 260.091 22.955V28.0459C260.091 29.4517 258.951 30.5914 257.545 30.5914C256.14 30.5914 255 29.4517 255 28.0459V22.955ZM275.364 2.59135C275.364 1.18554 276.503 0.0458984 277.909 0.0458984C279.315 0.0458984 280.455 1.18554 280.455 2.59135V43.3186C280.455 44.7244 279.315 45.8641 277.909 45.8641C276.503 45.8641 275.364 44.7244 275.364 43.3186V2.59135ZM285.545 7.68226C285.545 6.27644 286.685 5.13681 288.091 5.13681C289.497 5.13681 290.636 6.27645 290.636 7.68226V48.4095C290.636 49.8154 289.497 50.955 288.091 50.955C286.685 50.955 285.545 49.8153 285.545 48.4095V7.68226ZM295.727 15.3186C295.727 13.9128 296.867 12.7732 298.273 12.7732C299.679 12.7732 300.818 13.9128 300.818 15.3186V35.6823C300.818 37.0881 299.679 38.2277 298.273 38.2277C296.867 38.2277 295.727 37.0881 295.727 35.6823V15.3186ZM305.909 22.955C305.909 21.5492 307.049 20.4095 308.455 20.4095C309.86 20.4095 311 21.5492 311 22.955V28.0459C311 29.4517 309.86 30.5914 308.455 30.5914C307.049 30.5914 305.909 29.4517 305.909 28.0459V22.955Z" fill="#2972FE" fill-opacity="0.3"/>
<path d="M327.182 15.3186C327.182 13.9128 328.321 12.7732 329.727 12.7732C331.133 12.7732 332.273 13.9128 332.273 15.3186V35.6823C332.273 37.0881 331.133 38.2277 329.727 38.2277C328.321 38.2277 327.182 37.0881 327.182 35.6823V15.3186ZM317 22.955C317 21.5492 318.14 20.4095 319.545 20.4095C320.951 20.4095 322.091 21.5492 322.091 22.955V28.0459C322.091 29.4517 320.951 30.5914 319.545 30.5914C318.14 30.5914 317 29.4517 317 28.0459V22.955ZM337.364 2.59135C337.364 1.18554 338.503 0.0458984 339.909 0.0458984C341.315 0.0458984 342.455 1.18554 342.455 2.59135V43.3186C342.455 44.7244 341.315 45.8641 339.909 45.8641C338.503 45.8641 337.364 44.7244 337.364 43.3186V2.59135ZM347.545 7.68226C347.545 6.27644 348.685 5.13681 350.091 5.13681C351.497 5.13681 352.636 6.27645 352.636 7.68226V48.4095C352.636 49.8154 351.497 50.955 350.091 50.955C348.685 50.955 347.545 49.8153 347.545 48.4095V7.68226ZM357.727 15.3186C357.727 13.9128 358.867 12.7732 360.273 12.7732C361.679 12.7732 362.818 13.9128 362.818 15.3186V35.6823C362.818 37.0881 361.679 38.2277 360.273 38.2277C358.867 38.2277 357.727 37.0881 357.727 35.6823V15.3186ZM367.909 22.955C367.909 21.5492 369.049 20.4095 370.455 20.4095C371.86 20.4095 373 21.5492 373 22.955V28.0459C373 29.4517 371.86 30.5914 370.455 30.5914C369.049 30.5914 367.909 29.4517 367.909 28.0459V22.955Z" fill="#2972FE" fill-opacity="0.3"/>
</svg>
