<svg width="75" height="73" viewBox="0 0 75 73" fill="none" xmlns="http://www.w3.org/2000/svg">
<circle cx="38.5" cy="36.5" r="28.5" fill="url(#paint0_linear_2843_73165)"/>
<circle cx="72" cy="11" r="3" fill="#2972FE" fill-opacity="0.7"/>
<circle cx="8" cy="4" r="4" fill="#2972FE" fill-opacity="0.7"/>
<circle cx="4" cy="54" r="2" fill="#2972FE" fill-opacity="0.7"/>
<circle cx="67" cy="65" r="1" fill="#2972FE" fill-opacity="0.7"/>
<mask id="mask0_2843_73165" style="mask-type:alpha" maskUnits="userSpaceOnUse" x="28" y="27" width="20" height="20">
<path fill-rule="evenodd" clip-rule="evenodd" d="M28 37C28 31.48 32.48 27 38 27C43.52 27 48 31.48 48 37C48 42.52 43.52 47 38 47C32.48 47 28 42.52 28 37ZM31.7 37.7L35.29 41.29C35.68 41.68 36.32 41.68 36.7 41.29L44.29 33.7C44.68 33.31 44.68 32.68 44.29 32.29C43.9 31.9 43.27 31.9 42.88 32.29L36 39.17L33.11 36.29C32.72 35.9 32.09 35.9 31.7 36.29C31.5127 36.4768 31.4075 36.7305 31.4075 36.995C31.4075 37.2595 31.5127 37.5132 31.7 37.7Z" fill="black"/>
</mask>
<g mask="url(#mask0_2843_73165)">
<rect x="26" y="25" width="24" height="24" fill="white"/>
</g>
<circle cx="43" cy="2" r="1" fill="#2972FE" fill-opacity="0.7"/>
<circle cx="25.5" cy="71.5" r="1.5" fill="#2972FE" fill-opacity="0.7"/>
<circle cx="49.5" cy="69.5" r="0.5" fill="#2972FE" fill-opacity="0.7"/>
<circle cx="69" cy="45" r="1" fill="#2972FE" fill-opacity="0.7"/>
<circle cx="0.5" cy="30.5" r="0.5" fill="#2972FE" fill-opacity="0.7"/>
<defs>
<linearGradient id="paint0_linear_2843_73165" x1="67" y1="65.1385" x2="10" y2="8.13847" gradientUnits="userSpaceOnUse">
<stop stop-color="#2972FE"/>
<stop offset="1" stop-color="#6499FF"/>
</linearGradient>
</defs>
</svg>
