<svg width="48" height="41" viewBox="0 0 48 41" fill="none" xmlns="http://www.w3.org/2000/svg">
<rect y="0.5" width="48" height="40" rx="12" fill="#2972FE" fill-opacity="0.1"/>
<mask id="mask0_2950_13191" style="mask-type:alpha" maskUnits="userSpaceOnUse" x="16" y="12" width="16" height="17">
<path fill-rule="evenodd" clip-rule="evenodd" d="M28 16.5C28 18.71 26.21 20.5 24 20.5C21.79 20.5 20 18.71 20 16.5C20 14.29 21.79 12.5 24 12.5C26.21 12.5 28 14.29 28 16.5ZM16 26.5C16 23.84 21.33 22.5 24 22.5C26.67 22.5 32 23.84 32 26.5V27.5C32 28.05 31.55 28.5 31 28.5H17C16.45 28.5 16 28.05 16 27.5V26.5Z" fill="black"/>
</mask>
<g mask="url(#mask0_2950_13191)">
<rect x="12" y="8.5" width="24" height="24" fill="url(#paint0_linear_2950_13191)"/>
</g>
<defs>
<linearGradient id="paint0_linear_2950_13191" x1="36" y1="32.5583" x2="12" y2="8.5583" gradientUnits="userSpaceOnUse">
<stop stop-color="#2972FE"/>
<stop offset="1" stop-color="#6499FF"/>
</linearGradient>
</defs>
</svg>
