<svg width="49" height="41" viewBox="0 0 49 41" fill="none" xmlns="http://www.w3.org/2000/svg">
<rect x="0.333496" y="0.5" width="48" height="40" rx="12" fill="#2972FE" fill-opacity="0.1"/>
<mask id="mask0_2950_13169" style="mask-type:alpha" maskUnits="userSpaceOnUse" x="15" y="10" width="19" height="21">
<path fill-rule="evenodd" clip-rule="evenodd" d="M30.3335 12.5H31.3335C32.4335 12.5 33.3335 13.4 33.3335 14.5V28.5C33.3335 29.6 32.4335 30.5 31.3335 30.5H17.3335C16.2235 30.5 15.3335 29.6 15.3335 28.5V14.5C15.3335 13.4 16.2235 12.5 17.3335 12.5H18.3335V11.5C18.3335 10.95 18.7835 10.5 19.3335 10.5C19.8835 10.5 20.3335 10.95 20.3335 11.5V12.5H28.3335V11.5C28.3335 10.95 28.7835 10.5 29.3335 10.5C29.8835 10.5 30.3335 10.95 30.3335 11.5V12.5ZM20.3335 19.5H28.3335C28.8835 19.5 29.3335 19.95 29.3335 20.5C29.3335 21.05 28.8835 21.5 28.3335 21.5H20.3335C19.7835 21.5 19.3335 21.05 19.3335 20.5C19.3335 19.95 19.7835 19.5 20.3335 19.5ZM30.3335 28.5H18.3335C17.7835 28.5 17.3335 28.05 17.3335 27.5V17.5H31.3335V27.5C31.3335 28.05 30.8835 28.5 30.3335 28.5ZM20.3335 23.5H25.3335C25.8835 23.5 26.3335 23.95 26.3335 24.5C26.3335 25.05 25.8835 25.5 25.3335 25.5H20.3335C19.7835 25.5 19.3335 25.05 19.3335 24.5C19.3335 23.95 19.7835 23.5 20.3335 23.5Z" fill="black"/>
</mask>
<g mask="url(#mask0_2950_13169)">
<rect x="12.3335" y="8.5" width="24" height="24" fill="url(#paint0_linear_2950_13169)"/>
</g>
<defs>
<linearGradient id="paint0_linear_2950_13169" x1="36.3335" y1="32.5583" x2="12.3335" y2="8.5583" gradientUnits="userSpaceOnUse">
<stop stop-color="#2972FE"/>
<stop offset="1" stop-color="#6499FF"/>
</linearGradient>
</defs>
</svg>
