<svg width="24" height="24" viewBox="0 0 24 24" fill="none" xmlns="http://www.w3.org/2000/svg">
<mask id="mask0_2950_13098" style="mask-type:alpha" maskUnits="userSpaceOnUse" x="4" y="2" width="16" height="20">
<path fill-rule="evenodd" clip-rule="evenodd" d="M18.0015 10.75V15.75L19.2915 17.04C19.9215 17.67 19.4715 18.75 18.5815 18.75H5.41152C4.52152 18.75 4.08152 17.67 4.71152 17.04L6.00152 15.75V10.75C6.00152 7.67 7.63152 5.11 10.5015 4.43V3.75C10.5015 2.92 11.1715 2.25 12.0015 2.25C12.8315 2.25 13.5015 2.92 13.5015 3.75V4.43C16.3615 5.11 18.0015 7.68 18.0015 10.75ZM14.0015 19.75C14.0015 20.85 13.1015 21.75 12.0015 21.75C10.8915 21.75 10.0015 20.85 10.0015 19.75H14.0015Z" fill="black"/>
</mask>
<g mask="url(#mask0_2950_13098)">
<rect width="24" height="24" fill="#2972FE"/>
</g>
</svg>
