<svg width="344" height="84" viewBox="0 0 344 84" fill="none" xmlns="http://www.w3.org/2000/svg">
<rect width="344" height="84" rx="42" fill="white"/>
<g clip-path="url(#clip0_259_483)">
<path fill-rule="evenodd" clip-rule="evenodd" d="M33.8316 27.4965H35.4421C35.8692 27.4965 36.2789 27.6662 36.5809 27.9682C36.8829 28.2702 37.0526 28.6799 37.0526 29.107V39.8439C37.0526 40.271 36.8829 40.6806 36.5809 40.9827C36.2789 41.2847 35.8692 41.4544 35.4421 41.4544H22.5579C22.1307 41.4544 21.7211 41.2847 21.4191 40.9827C21.117 40.6806 20.9474 40.271 20.9474 39.8439V29.107C20.9474 28.6799 21.117 28.2702 21.4191 27.9682C21.7211 27.6662 22.1307 27.4965 22.5579 27.4965H24.1684V25.3491H25.2421V27.4965H32.7579V25.3491H33.8316V27.4965ZM27.3895 33.9386H24.1684V32.8649H27.3895V33.9386ZM33.8316 32.8649H30.6105V33.9386H33.8316V32.8649ZM27.3895 37.1596H24.1684V36.086H27.3895V37.1596ZM30.6105 37.1596H33.8316V36.086H30.6105V37.1596Z" fill="#2B2B2B"/>
</g>
<path d="M14.78 58.1014C14.3067 58.1014 13.8767 58.0281 13.49 57.8814C13.11 57.7281 12.7533 57.4814 12.42 57.1414L12.89 56.5714C13.1833 56.8581 13.4733 57.0648 13.76 57.1914C14.0533 57.3114 14.39 57.3714 14.77 57.3714C15.0567 57.3714 15.3167 57.3214 15.55 57.2214C15.7833 57.1214 15.97 56.9748 16.11 56.7814C16.25 56.5881 16.32 56.3548 16.32 56.0814C16.32 55.6614 16.1633 55.3514 15.85 55.1514C15.5433 54.9514 15.11 54.8514 14.55 54.8514H13.81V54.2114H14.35C14.9233 54.2114 15.3367 54.1148 15.59 53.9214C15.85 53.7281 15.98 53.4481 15.98 53.0814C15.98 52.7348 15.8567 52.4748 15.61 52.3014C15.37 52.1214 15.0667 52.0314 14.7 52.0314C14.3933 52.0314 14.11 52.0881 13.85 52.2014C13.59 52.3081 13.36 52.4548 13.16 52.6414L12.71 52.0814C12.9433 51.8481 13.2367 51.6614 13.59 51.5214C13.9433 51.3748 14.32 51.3014 14.72 51.3014C15.3333 51.3014 15.8333 51.4514 16.22 51.7514C16.6067 52.0448 16.8 52.4548 16.8 52.9814C16.8 53.3281 16.7133 53.6348 16.54 53.9014C16.3733 54.1614 16.1333 54.3481 15.82 54.4614V54.5014C16.2 54.5748 16.5133 54.7514 16.76 55.0314C17.0133 55.3048 17.14 55.6681 17.14 56.1214C17.14 56.5414 17.0333 56.8981 16.82 57.1914C16.6133 57.4848 16.33 57.7114 15.97 57.8714C15.6167 58.0248 15.22 58.1014 14.78 58.1014ZM19.5575 58.1014C19.1508 58.1014 18.8108 57.9814 18.5375 57.7414C18.2708 57.4948 18.1375 57.1548 18.1375 56.7214C18.1375 56.1881 18.3741 55.7814 18.8475 55.5014C19.3275 55.2148 20.0841 55.0148 21.1175 54.9014C21.1175 54.6948 21.0875 54.4981 21.0275 54.3114C20.9741 54.1248 20.8741 53.9748 20.7275 53.8614C20.5875 53.7414 20.3841 53.6814 20.1175 53.6814C19.8375 53.6814 19.5741 53.7348 19.3275 53.8414C19.0808 53.9481 18.8608 54.0681 18.6675 54.2014L18.3475 53.6314C18.5741 53.4848 18.8508 53.3448 19.1775 53.2114C19.5108 53.0714 19.8708 53.0014 20.2575 53.0014C20.8508 53.0014 21.2808 53.1848 21.5475 53.5514C21.8142 53.9114 21.9475 54.3948 21.9475 55.0014V57.9814H21.2675L21.1975 57.4014H21.1675C20.9408 57.5881 20.6908 57.7514 20.4175 57.8914C20.1508 58.0314 19.8641 58.1014 19.5575 58.1014ZM19.7975 57.4414C20.0308 57.4414 20.2508 57.3848 20.4575 57.2714C20.6642 57.1581 20.8842 56.9981 21.1175 56.7914V55.4414C20.3108 55.5414 19.7441 55.6914 19.4175 55.8914C19.0975 56.0914 18.9375 56.3481 18.9375 56.6614C18.9375 56.9348 19.0208 57.1348 19.1875 57.2614C19.3541 57.3814 19.5575 57.4414 19.7975 57.4414ZM23.5569 57.9814V53.1214H27.4469V57.9814H26.6269V53.7914H24.3769V57.9814H23.5569ZM29.1646 57.9814V53.1214H29.9646V55.1414C29.9646 55.4014 29.9546 55.6881 29.9346 56.0014C29.9213 56.3081 29.9046 56.6181 29.8846 56.9314H29.9246C30.018 56.7781 30.1246 56.6048 30.2446 56.4114C30.3713 56.2114 30.478 56.0381 30.5646 55.8914L32.4046 53.1214H33.1746V57.9814H32.3746V55.9614C32.3746 55.7014 32.3813 55.4148 32.3946 55.1014C32.4146 54.7881 32.4346 54.4748 32.4546 54.1614H32.4146C32.328 54.3081 32.2213 54.4814 32.0946 54.6814C31.968 54.8814 31.8613 55.0548 31.7746 55.2014L29.9246 57.9814H29.1646ZM36.8193 58.1014C36.3926 58.1014 36.006 58.0014 35.6593 57.8014C35.3126 57.6014 35.0393 57.3114 34.8393 56.9314C34.6393 56.5514 34.5393 56.0948 34.5393 55.5614C34.5393 55.0148 34.646 54.5514 34.8593 54.1714C35.0793 53.7914 35.366 53.5014 35.7193 53.3014C36.0793 53.1014 36.466 53.0014 36.8793 53.0014C37.1993 53.0014 37.4726 53.0581 37.6993 53.1714C37.9326 53.2848 38.1326 53.4181 38.2993 53.5714L37.8793 54.1114C37.7393 53.9848 37.5893 53.8814 37.4293 53.8014C37.276 53.7214 37.1026 53.6814 36.9093 53.6814C36.616 53.6814 36.3526 53.7614 36.1193 53.9214C35.8926 54.0748 35.7126 54.2948 35.5793 54.5814C35.4526 54.8614 35.3893 55.1881 35.3893 55.5614C35.3893 56.1148 35.526 56.5648 35.7993 56.9114C36.0793 57.2514 36.4426 57.4214 36.8893 57.4214C37.116 57.4214 37.326 57.3748 37.5193 57.2814C37.7126 57.1814 37.8826 57.0648 38.0293 56.9314L38.3893 57.4814C38.1693 57.6748 37.926 57.8281 37.6593 57.9414C37.3926 58.0481 37.1126 58.1014 36.8193 58.1014ZM39.5402 57.9814V53.1214H40.3402V55.1414C40.3402 55.4014 40.3302 55.6881 40.3102 56.0014C40.2969 56.3081 40.2802 56.6181 40.2602 56.9314H40.3002C40.3936 56.7781 40.5002 56.6048 40.6202 56.4114C40.7469 56.2114 40.8536 56.0381 40.9402 55.8914L42.7802 53.1214H43.5502V57.9814H42.7502V55.9614C42.7502 55.7014 42.7569 55.4148 42.7702 55.1014C42.7902 54.7881 42.8102 54.4748 42.8302 54.1614H42.7902C42.7036 54.3081 42.5969 54.4814 42.4702 54.6814C42.3436 54.8814 42.2369 55.0548 42.1502 55.2014L40.3002 57.9814H39.5402Z" fill="#2B2B2B"/>
<path fill-rule="evenodd" clip-rule="evenodd" d="M92.1139 39.6491C89.3181 37.6594 85.5 34.3727 85.5 31.2651C85.5 26.0733 90.725 24.1348 95 28.1442C99.275 24.1348 104.5 26.0733 104.5 31.2651C104.5 34.3727 100.681 37.6594 97.8861 39.6491C96.6207 40.5491 95.988 41 95 41C94.012 41 93.3793 40.55 92.1139 39.6491ZM99.275 28.8677C99.464 28.8677 99.6452 28.9374 99.7788 29.0615C99.9124 29.1856 99.9875 29.354 99.9875 29.5295V30.6324H101.175C101.364 30.6324 101.545 30.7021 101.679 30.8262C101.812 30.9503 101.888 31.1187 101.888 31.2942C101.888 31.4697 101.812 31.638 101.679 31.7621C101.545 31.8862 101.364 31.9559 101.175 31.9559H99.9875V33.0589C99.9875 33.2344 99.9124 33.4027 99.7788 33.5268C99.6452 33.6509 99.464 33.7206 99.275 33.7206C99.086 33.7206 98.9048 33.6509 98.7712 33.5268C98.6376 33.4027 98.5625 33.2344 98.5625 33.0589V31.9559H97.375C97.186 31.9559 97.0048 31.8862 96.8712 31.7621C96.7376 31.638 96.6625 31.4697 96.6625 31.2942C96.6625 31.1187 96.7376 30.9503 96.8712 30.8262C97.0048 30.7021 97.186 30.6324 97.375 30.6324H98.5625V29.5295C98.5625 29.354 98.6376 29.1856 98.7712 29.0615C98.9048 28.9374 99.086 28.8677 99.275 28.8677Z" fill="#2B2B2B"/>
<path d="M73.9 58V51.44H74.9L76.16 54.94C76.24 55.1667 76.3167 55.3967 76.39 55.63C76.47 55.8567 76.55 56.0833 76.63 56.31H76.67C76.75 56.0833 76.8233 55.8567 76.89 55.63C76.9633 55.3967 77.04 55.1667 77.12 54.94L78.36 51.44H79.37V58H78.59V54.39C78.59 54.0967 78.6033 53.7733 78.63 53.42C78.6567 53.06 78.68 52.7367 78.7 52.45H78.66L78.14 53.94L76.9 57.34H76.35L75.11 53.94L74.59 52.45H74.55C74.57 52.7367 74.59 53.06 74.61 53.42C74.6367 53.7733 74.65 54.0967 74.65 54.39V58H73.9ZM83.136 58.12C82.7027 58.12 82.3093 58.02 81.956 57.82C81.6027 57.6133 81.3227 57.32 81.116 56.94C80.9093 56.56 80.806 56.1067 80.806 55.58C80.806 55.0467 80.9093 54.59 81.116 54.21C81.3293 53.83 81.6027 53.5367 81.936 53.33C82.2693 53.1233 82.6193 53.02 82.986 53.02C83.606 53.02 84.0827 53.2267 84.416 53.64C84.756 54.0533 84.926 54.6067 84.926 55.3C84.926 55.3867 84.9227 55.4733 84.916 55.56C84.916 55.64 84.9093 55.71 84.896 55.77H81.616C81.6493 56.2833 81.8093 56.6933 82.096 57C82.3893 57.3067 82.7693 57.46 83.236 57.46C83.4693 57.46 83.6827 57.4267 83.876 57.36C84.076 57.2867 84.266 57.1933 84.446 57.08L84.736 57.62C84.5293 57.7533 84.2927 57.87 84.026 57.97C83.766 58.07 83.4693 58.12 83.136 58.12ZM81.606 55.18H84.206C84.206 54.6867 84.0993 54.3133 83.886 54.06C83.6793 53.8 83.386 53.67 83.006 53.67C82.666 53.67 82.3593 53.8033 82.086 54.07C81.8193 54.33 81.6593 54.7 81.606 55.18ZM87.2173 55.45C87.164 55.93 87.0906 56.32 86.9973 56.62C86.9106 56.92 86.8106 57.1567 86.6973 57.33H88.9573V53.81H87.4073L87.2173 55.45ZM86.3773 58V59.72H85.6673L85.5773 57.85V57.33H85.8173C85.9106 57.2767 85.994 57.1933 86.0673 57.08C86.1473 56.96 86.224 56.7633 86.2973 56.49C86.3706 56.21 86.4373 55.81 86.4973 55.29L86.7573 53.14H89.7773V57.33H90.4873V57.85L90.4073 59.72H89.6973V58H86.3773ZM91.6099 58V53.14H92.4299V55.14H93.3699L93.8499 54.06C93.9833 53.7667 94.1133 53.5467 94.2399 53.4C94.3666 53.2467 94.5033 53.1467 94.6499 53.1C94.7966 53.0467 94.9566 53.02 95.1299 53.02C95.2366 53.02 95.3299 53.0367 95.4099 53.07L95.2699 53.84C95.2299 53.8267 95.1766 53.82 95.1099 53.82C94.9833 53.82 94.8666 53.8567 94.7599 53.93C94.6533 54.0033 94.5333 54.1867 94.3999 54.48L93.9899 55.44L95.6399 58H94.7399L93.3899 55.81H92.4299V58H91.6099ZM97.6931 58.12C97.2865 58.12 96.9465 58 96.6731 57.76C96.4065 57.5133 96.2731 57.1733 96.2731 56.74C96.2731 56.2067 96.5098 55.8 96.9831 55.52C97.4631 55.2333 98.2198 55.0333 99.2531 54.92C99.2531 54.7133 99.2231 54.5167 99.1631 54.33C99.1098 54.1433 99.0098 53.9933 98.8631 53.88C98.7231 53.76 98.5198 53.7 98.2531 53.7C97.9731 53.7 97.7098 53.7533 97.4631 53.86C97.2165 53.9667 96.9965 54.0867 96.8031 54.22L96.4831 53.65C96.7098 53.5033 96.9865 53.3633 97.3131 53.23C97.6465 53.09 98.0065 53.02 98.3931 53.02C98.9865 53.02 99.4165 53.2033 99.6831 53.57C99.9498 53.93 100.083 54.4133 100.083 55.02V58H99.4031L99.3331 57.42H99.3031C99.0765 57.6067 98.8265 57.77 98.5531 57.91C98.2865 58.05 97.9998 58.12 97.6931 58.12ZM97.9331 57.46C98.1665 57.46 98.3865 57.4033 98.5931 57.29C98.7998 57.1767 99.0198 57.0167 99.2531 56.81V55.46C98.4465 55.56 97.8798 55.71 97.5531 55.91C97.2331 56.11 97.0731 56.3667 97.0731 56.68C97.0731 56.9533 97.1565 57.1533 97.3231 57.28C97.4898 57.4 97.6931 57.46 97.9331 57.46ZM101.693 60.05V53.14H102.373L102.443 53.7H102.473C102.693 53.5133 102.933 53.3533 103.193 53.22C103.459 53.0867 103.736 53.02 104.023 53.02C104.649 53.02 105.126 53.2467 105.453 53.7C105.779 54.1467 105.943 54.7467 105.943 55.5C105.943 56.0467 105.843 56.5167 105.643 56.91C105.449 57.3033 105.193 57.6033 104.873 57.81C104.559 58.0167 104.216 58.12 103.843 58.12C103.616 58.12 103.389 58.07 103.163 57.97C102.943 57.87 102.719 57.7333 102.493 57.56L102.513 58.41V60.05H101.693ZM103.703 57.43C104.103 57.43 104.433 57.26 104.693 56.92C104.959 56.5733 105.093 56.1 105.093 55.5C105.093 54.9667 104.993 54.5367 104.793 54.21C104.599 53.8767 104.273 53.71 103.813 53.71C103.606 53.71 103.396 53.7667 103.183 53.88C102.976 53.9933 102.753 54.1567 102.513 54.37V56.92C102.733 57.1067 102.946 57.24 103.153 57.32C103.359 57.3933 103.543 57.43 103.703 57.43ZM108.224 58V53.81H106.594V53.14H110.674V53.81H109.044V58H108.224ZM112.739 58.12C112.332 58.12 111.992 58 111.719 57.76C111.452 57.5133 111.319 57.1733 111.319 56.74C111.319 56.2067 111.556 55.8 112.029 55.52C112.509 55.2333 113.266 55.0333 114.299 54.92C114.299 54.7133 114.269 54.5167 114.209 54.33C114.156 54.1433 114.056 53.9933 113.909 53.88C113.769 53.76 113.566 53.7 113.299 53.7C113.019 53.7 112.756 53.7533 112.509 53.86C112.262 53.9667 112.042 54.0867 111.849 54.22L111.529 53.65C111.756 53.5033 112.032 53.3633 112.359 53.23C112.692 53.09 113.052 53.02 113.439 53.02C114.032 53.02 114.462 53.2033 114.729 53.57C114.996 53.93 115.129 54.4133 115.129 55.02V58H114.449L114.379 57.42H114.349C114.122 57.6067 113.872 57.77 113.599 57.91C113.332 58.05 113.046 58.12 112.739 58.12ZM112.979 57.46C113.212 57.46 113.432 57.4033 113.639 57.29C113.846 57.1767 114.066 57.0167 114.299 56.81V55.46C113.492 55.56 112.926 55.71 112.599 55.91C112.279 56.11 112.119 56.3667 112.119 56.68C112.119 56.9533 112.202 57.1533 112.369 57.28C112.536 57.4 112.739 57.46 112.979 57.46Z" fill="#2B2B2B"/>
<rect x="135" y="5" width="74" height="74" rx="37" fill="#C8E0FF"/>
<path d="M168.182 42H175.818" stroke="#2A2A2A" stroke-width="1.20561" stroke-linecap="round" stroke-linejoin="round"/>
<path d="M172 45.8176V38.1821" stroke="#2A2A2A" stroke-width="1.20561" stroke-linecap="round" stroke-linejoin="round"/>
<path d="M247.945 25C249.753 24.9997 251.499 25.6004 252.857 26.6897C254.216 27.7791 255.094 29.2829 255.328 30.9203L257.422 33.9284C257.559 34.1264 257.531 34.4214 257.212 34.5472L255.389 35.2595V37.75C255.389 38.2009 255.193 38.6333 254.844 38.9521C254.495 39.2709 254.022 39.45 253.528 39.45H251.668L251.667 42H243.292V38.8601C243.292 37.8571 242.887 36.9077 242.134 36.0509C241.257 35.0508 240.707 33.8448 240.548 32.5718C240.389 31.2988 240.627 30.0106 241.234 28.8557C241.841 27.7008 242.794 26.7261 243.981 26.0439C245.168 25.3617 246.542 24.9999 247.945 25ZM247.452 29.8986C247.145 29.6275 246.733 29.4775 246.306 29.4808C245.879 29.4841 245.471 29.6405 245.169 29.9162C244.867 30.192 244.696 30.565 244.692 30.9551C244.688 31.3451 244.852 31.7208 245.149 32.0015L247.945 34.5566L250.741 32.0015C250.897 31.8642 251.021 31.7 251.106 31.5185C251.191 31.3371 251.236 31.1419 251.238 30.9443C251.24 30.7468 251.199 30.551 251.117 30.3682C251.035 30.1854 250.914 30.0193 250.761 29.8797C250.608 29.74 250.426 29.6296 250.226 29.5549C250.026 29.4801 249.811 29.4425 249.595 29.4443C249.379 29.446 249.165 29.4871 248.967 29.5651C248.768 29.6431 248.588 29.7565 248.438 29.8986L247.945 30.3491L247.452 29.8986Z" fill="#2B2B2B"/>
<path d="M229.78 58.12C229.307 58.12 228.877 58.0467 228.49 57.9C228.11 57.7467 227.753 57.5 227.42 57.16L227.89 56.59C228.183 56.8767 228.473 57.0833 228.76 57.21C229.053 57.33 229.39 57.39 229.77 57.39C230.057 57.39 230.317 57.34 230.55 57.24C230.783 57.14 230.97 56.9933 231.11 56.8C231.25 56.6067 231.32 56.3733 231.32 56.1C231.32 55.68 231.163 55.37 230.85 55.17C230.543 54.97 230.11 54.87 229.55 54.87H228.81V54.23H229.35C229.923 54.23 230.337 54.1333 230.59 53.94C230.85 53.7467 230.98 53.4667 230.98 53.1C230.98 52.7533 230.857 52.4933 230.61 52.32C230.37 52.14 230.067 52.05 229.7 52.05C229.393 52.05 229.11 52.1067 228.85 52.22C228.59 52.3267 228.36 52.4733 228.16 52.66L227.71 52.1C227.943 51.8667 228.237 51.68 228.59 51.54C228.943 51.3933 229.32 51.32 229.72 51.32C230.333 51.32 230.833 51.47 231.22 51.77C231.607 52.0633 231.8 52.4733 231.8 53C231.8 53.3467 231.713 53.6533 231.54 53.92C231.373 54.18 231.133 54.3667 230.82 54.48V54.52C231.2 54.5933 231.513 54.77 231.76 55.05C232.013 55.3233 232.14 55.6867 232.14 56.14C232.14 56.56 232.033 56.9167 231.82 57.21C231.613 57.5033 231.33 57.73 230.97 57.89C230.617 58.0433 230.22 58.12 229.78 58.12ZM234.447 55.45C234.394 55.93 234.321 56.32 234.227 56.62C234.141 56.92 234.041 57.1567 233.927 57.33H236.187V53.81H234.637L234.447 55.45ZM233.607 58V59.72H232.897L232.807 57.85V57.33H233.047C233.141 57.2767 233.224 57.1933 233.297 57.08C233.377 56.96 233.454 56.7633 233.527 56.49C233.601 56.21 233.667 55.81 233.727 55.29L233.987 53.14H237.007V57.33H237.717V57.85L237.637 59.72H236.927V58H233.607ZM240.73 58.12C240.337 58.12 239.967 58.02 239.62 57.82C239.28 57.62 239.003 57.33 238.79 56.95C238.583 56.57 238.48 56.1133 238.48 55.58C238.48 55.0333 238.583 54.57 238.79 54.19C239.003 53.81 239.28 53.52 239.62 53.32C239.967 53.12 240.337 53.02 240.73 53.02C241.13 53.02 241.5 53.12 241.84 53.32C242.18 53.52 242.453 53.81 242.66 54.19C242.873 54.57 242.98 55.0333 242.98 55.58C242.98 56.1133 242.873 56.57 242.66 56.95C242.453 57.33 242.18 57.62 241.84 57.82C241.5 58.02 241.13 58.12 240.73 58.12ZM240.73 57.44C241.15 57.44 241.487 57.27 241.74 56.93C242 56.5833 242.13 56.1333 242.13 55.58C242.13 55.02 242 54.5667 241.74 54.22C241.487 53.8733 241.15 53.7 240.73 53.7C240.317 53.7 239.98 53.8733 239.72 54.22C239.46 54.5667 239.33 55.02 239.33 55.58C239.33 56.1333 239.46 56.5833 239.72 56.93C239.98 57.27 240.317 57.44 240.73 57.44ZM244.34 60.05V53.14H245.02L245.09 53.7H245.12C245.34 53.5133 245.58 53.3533 245.84 53.22C246.107 53.0867 246.384 53.02 246.67 53.02C247.297 53.02 247.774 53.2467 248.1 53.7C248.427 54.1467 248.59 54.7467 248.59 55.5C248.59 56.0467 248.49 56.5167 248.29 56.91C248.097 57.3033 247.84 57.6033 247.52 57.81C247.207 58.0167 246.864 58.12 246.49 58.12C246.264 58.12 246.037 58.07 245.81 57.97C245.59 57.87 245.367 57.7333 245.14 57.56L245.16 58.41V60.05H244.34ZM246.35 57.43C246.75 57.43 247.08 57.26 247.34 56.92C247.607 56.5733 247.74 56.1 247.74 55.5C247.74 54.9667 247.64 54.5367 247.44 54.21C247.247 53.8767 246.92 53.71 246.46 53.71C246.254 53.71 246.044 53.7667 245.83 53.88C245.624 53.9933 245.4 54.1567 245.16 54.37V56.92C245.38 57.1067 245.594 57.24 245.8 57.32C246.007 57.3933 246.19 57.43 246.35 57.43ZM251.858 58.12C251.464 58.12 251.094 58.02 250.748 57.82C250.408 57.62 250.131 57.33 249.918 56.95C249.711 56.57 249.608 56.1133 249.608 55.58C249.608 55.0333 249.711 54.57 249.918 54.19C250.131 53.81 250.408 53.52 250.748 53.32C251.094 53.12 251.464 53.02 251.858 53.02C252.258 53.02 252.628 53.12 252.968 53.32C253.308 53.52 253.581 53.81 253.788 54.19C254.001 54.57 254.108 55.0333 254.108 55.58C254.108 56.1133 254.001 56.57 253.788 56.95C253.581 57.33 253.308 57.62 252.968 57.82C252.628 58.02 252.258 58.12 251.858 58.12ZM251.858 57.44C252.278 57.44 252.614 57.27 252.868 56.93C253.128 56.5833 253.258 56.1333 253.258 55.58C253.258 55.02 253.128 54.5667 252.868 54.22C252.614 53.8733 252.278 53.7 251.858 53.7C251.444 53.7 251.108 53.8733 250.848 54.22C250.588 54.5667 250.458 55.02 250.458 55.58C250.458 56.1333 250.588 56.5833 250.848 56.93C251.108 57.27 251.444 57.44 251.858 57.44ZM255.468 58V53.14H257.338C257.871 53.14 258.301 53.2367 258.628 53.43C258.961 53.6167 259.128 53.93 259.128 54.37C259.128 54.6367 259.055 54.86 258.908 55.04C258.768 55.2133 258.571 55.3367 258.318 55.41V55.44C258.591 55.5067 258.828 55.63 259.028 55.81C259.235 55.99 259.338 56.2567 259.338 56.61C259.338 57.09 259.158 57.4433 258.798 57.67C258.438 57.89 257.978 58 257.418 58H255.468ZM256.278 55.18H257.198C257.605 55.18 257.895 55.1167 258.068 54.99C258.241 54.8567 258.328 54.6767 258.328 54.45C258.328 54.2233 258.241 54.0467 258.068 53.92C257.901 53.7933 257.631 53.73 257.258 53.73H256.278V55.18ZM256.278 57.41H257.328C257.728 57.41 258.025 57.3367 258.218 57.19C258.418 57.0367 258.518 56.8267 258.518 56.56C258.518 56.3133 258.415 56.12 258.208 55.98C258.001 55.84 257.691 55.77 257.278 55.77H256.278V57.41ZM260.626 58V53.14H261.446V54.93H262.366C262.94 54.93 263.403 55.05 263.756 55.29C264.116 55.53 264.296 55.9167 264.296 56.45C264.296 56.99 264.116 57.3833 263.756 57.63C263.403 57.8767 262.94 58 262.366 58H260.626ZM261.446 57.34H262.276C263.083 57.34 263.486 57.0433 263.486 56.45C263.486 56.1433 263.386 55.92 263.186 55.78C262.993 55.64 262.69 55.57 262.276 55.57H261.446V57.34ZM267.589 58.12C267.156 58.12 266.762 58.02 266.409 57.82C266.056 57.6133 265.776 57.32 265.569 56.94C265.362 56.56 265.259 56.1067 265.259 55.58C265.259 55.0467 265.362 54.59 265.569 54.21C265.782 53.83 266.056 53.5367 266.389 53.33C266.722 53.1233 267.072 53.02 267.439 53.02C268.059 53.02 268.536 53.2267 268.869 53.64C269.209 54.0533 269.379 54.6067 269.379 55.3C269.379 55.3867 269.376 55.4733 269.369 55.56C269.369 55.64 269.362 55.71 269.349 55.77H266.069C266.102 56.2833 266.262 56.6933 266.549 57C266.842 57.3067 267.222 57.46 267.689 57.46C267.922 57.46 268.136 57.4267 268.329 57.36C268.529 57.2867 268.719 57.1933 268.899 57.08L269.189 57.62C268.982 57.7533 268.746 57.87 268.479 57.97C268.219 58.07 267.922 58.12 267.589 58.12ZM266.059 55.18H268.659C268.659 54.6867 268.552 54.3133 268.339 54.06C268.132 53.8 267.839 53.67 267.459 53.67C267.119 53.67 266.812 53.8033 266.539 54.07C266.272 54.33 266.112 54.7 266.059 55.18Z" fill="#2B2B2B"/>
<path d="M313.021 39.6883L312.716 40.6309C308.794 40.3042 306.5 37.7857 306.5 35.3326V34.6659C306.5 34.1355 306.724 33.6269 307.122 33.2518C307.521 32.8768 308.061 32.6661 308.625 32.6661H315.057C314.26 33.1917 313.61 33.8903 313.162 34.7026C312.714 35.515 312.48 36.4171 312.481 37.3324C312.481 38.1724 312.674 38.9696 313.021 39.6883ZM313.583 24C314.617 24 315.607 24.3863 316.338 25.0739C317.069 25.7615 317.479 26.694 317.479 27.6664C317.479 28.6388 317.069 29.5714 316.338 30.259C315.607 30.9465 314.617 31.3328 313.583 31.3328C312.55 31.3328 311.559 30.9465 310.829 30.259C310.098 29.5714 309.688 28.6388 309.688 27.6664C309.688 26.694 310.098 25.7615 310.829 25.0739C311.559 24.3863 312.55 24 313.583 24ZM323.5 37.3324C323.5 38.1448 323.275 38.9431 322.847 39.6484C322.419 40.3538 321.802 40.9417 321.059 41.3541C320.315 41.7664 319.47 41.9889 318.607 41.9996C317.744 42.0103 316.893 41.8087 316.138 41.4148L314.166 41.9788C314.087 42.0012 314.004 42.0033 313.925 41.9846C313.846 41.966 313.773 41.9275 313.715 41.8731C313.658 41.8187 313.617 41.7505 313.597 41.6759C313.577 41.6013 313.579 41.523 313.603 41.4495L314.204 39.5949C313.837 38.9719 313.627 38.2782 313.589 37.567C313.552 36.8557 313.688 36.1458 313.986 35.4916C314.285 34.8373 314.739 34.2562 315.314 33.7926C315.888 33.329 316.568 32.9952 317.3 32.8169C318.033 32.6386 318.799 32.6205 319.54 32.7639C320.281 32.9073 320.978 33.2085 321.576 33.6443C322.175 34.0802 322.659 34.6392 322.993 35.2784C323.326 35.9177 323.5 36.6203 323.5 37.3324ZM317.125 35.3326C316.937 35.3326 316.757 35.4028 316.624 35.5278C316.491 35.6528 316.417 35.8224 316.417 35.9992C316.417 36.176 316.491 36.3455 316.624 36.4706C316.757 36.5956 316.937 36.6658 317.125 36.6658H319.958C320.146 36.6658 320.326 36.5956 320.459 36.4706C320.592 36.3455 320.667 36.176 320.667 35.9992C320.667 35.8224 320.592 35.6528 320.459 35.5278C320.326 35.4028 320.146 35.3326 319.958 35.3326H317.125ZM316.417 38.6657C316.417 38.8425 316.491 39.012 316.624 39.137C316.757 39.2621 316.937 39.3323 317.125 39.3323H318.542C318.73 39.3323 318.91 39.2621 319.043 39.137C319.175 39.012 319.25 38.8425 319.25 38.6657C319.25 38.4889 319.175 38.3193 319.043 38.1943C318.91 38.0693 318.73 37.999 318.542 37.999H317.125C316.937 37.999 316.757 38.0693 316.624 38.1943C316.491 38.3193 316.417 38.4889 316.417 38.6657Z" fill="#2B2B2B"/>
<path d="M307.75 58V55.06C307.59 55.0867 307.413 55.11 307.22 55.13C307.033 55.15 306.81 55.16 306.55 55.16C306.057 55.16 305.63 55.0933 305.27 54.96C304.917 54.82 304.643 54.5933 304.45 54.28C304.263 53.9667 304.17 53.5467 304.17 53.02V51.44H304.99V53.02C304.99 53.5667 305.13 53.9467 305.41 54.16C305.697 54.3667 306.103 54.47 306.63 54.47C306.877 54.47 307.09 54.46 307.27 54.44C307.457 54.42 307.617 54.3967 307.75 54.37V51.44H308.58V58H307.75ZM311.497 58.12C311.09 58.12 310.75 58 310.477 57.76C310.21 57.5133 310.077 57.1733 310.077 56.74C310.077 56.2067 310.314 55.8 310.787 55.52C311.267 55.2333 312.024 55.0333 313.057 54.92C313.057 54.7133 313.027 54.5167 312.967 54.33C312.914 54.1433 312.814 53.9933 312.667 53.88C312.527 53.76 312.324 53.7 312.057 53.7C311.777 53.7 311.514 53.7533 311.267 53.86C311.02 53.9667 310.8 54.0867 310.607 54.22L310.287 53.65C310.514 53.5033 310.79 53.3633 311.117 53.23C311.45 53.09 311.81 53.02 312.197 53.02C312.79 53.02 313.22 53.2033 313.487 53.57C313.754 53.93 313.887 54.4133 313.887 55.02V58H313.207L313.137 57.42H313.107C312.88 57.6067 312.63 57.77 312.357 57.91C312.09 58.05 311.804 58.12 311.497 58.12ZM311.737 57.46C311.97 57.46 312.19 57.4033 312.397 57.29C312.604 57.1767 312.824 57.0167 313.057 56.81V55.46C312.25 55.56 311.684 55.71 311.357 55.91C311.037 56.11 310.877 56.3667 310.877 56.68C310.877 56.9533 310.96 57.1533 311.127 57.28C311.294 57.4 311.497 57.46 311.737 57.46ZM316.43 58V53.81H314.8V53.14H318.88V53.81H317.25V58H316.43ZM320.04 58V53.14H320.86V54.93H321.55C322.123 54.93 322.586 55.05 322.94 55.29C323.3 55.53 323.48 55.9167 323.48 56.45C323.48 56.99 323.3 57.3833 322.94 57.63C322.586 57.8767 322.123 58 321.55 58H320.04ZM320.86 57.34H321.46C322.266 57.34 322.67 57.0433 322.67 56.45C322.67 56.1433 322.57 55.92 322.37 55.78C322.176 55.64 321.873 55.57 321.46 55.57H320.86V57.34ZM324.32 58V53.14H325.14V58H324.32Z" fill="#2B2B2B"/>
<defs>
<clipPath id="clip0_259_483">
<rect width="17" height="17" fill="white" transform="translate(20.5 24.9814)"/>
</clipPath>
</defs>
</svg>
