<svg viewBox="0 0 229 32" fill="none" xmlns="http://www.w3.org/2000/svg">
<path d="M11.583 24.0487C12.3297 24.0487 12.8737 24.1954 13.215 24.4887C13.5564 24.7821 13.727 25.1954 13.727 25.7287C13.727 25.9634 13.687 26.1901 13.607 26.4087C13.5324 26.6221 13.407 26.8141 13.231 26.9847C13.055 27.1554 12.8204 27.2914 12.527 27.3927C12.2337 27.4887 11.8737 27.5367 11.447 27.5367H10.791V29.7607H10.071V24.0487H11.583ZM11.519 24.6647H10.791V26.9207H11.367C11.7297 26.9207 12.031 26.8834 12.271 26.8087C12.511 26.7287 12.6897 26.6034 12.807 26.4327C12.9244 26.2621 12.983 26.0381 12.983 25.7607C12.983 25.3927 12.8657 25.1181 12.631 24.9367C12.3964 24.7554 12.0257 24.6647 11.519 24.6647ZM16.4748 25.3927C16.8428 25.3927 17.1575 25.4727 17.4188 25.6327C17.6855 25.7927 17.8881 26.0194 18.0268 26.3127C18.1708 26.6007 18.2428 26.9394 18.2428 27.3287V27.7527H15.3068C15.3175 28.2381 15.4401 28.6087 15.6748 28.8647C15.9148 29.1154 16.2481 29.2407 16.6748 29.2407C16.9468 29.2407 17.1868 29.2167 17.3948 29.1687C17.6081 29.1154 17.8268 29.0407 18.0508 28.9447V29.5607C17.8321 29.6567 17.6161 29.7261 17.4028 29.7687C17.1895 29.8167 16.9361 29.8407 16.6428 29.8407C16.2375 29.8407 15.8775 29.7581 15.5628 29.5927C15.2535 29.4274 15.0108 29.1821 14.8348 28.8567C14.6641 28.5261 14.5788 28.1234 14.5788 27.6487C14.5788 27.1794 14.6561 26.7767 14.8108 26.4407C14.9708 26.1047 15.1921 25.8461 15.4748 25.6647C15.7628 25.4834 16.0961 25.3927 16.4748 25.3927ZM16.4668 25.9687C16.1308 25.9687 15.8641 26.0781 15.6668 26.2967C15.4748 26.5101 15.3601 26.8087 15.3228 27.1927H17.5068C17.5068 26.9474 17.4695 26.7341 17.3948 26.5527C17.3201 26.3714 17.2055 26.2301 17.0508 26.1287C16.9015 26.0221 16.7068 25.9687 16.4668 25.9687ZM22.8064 23.6967C22.7851 23.9634 22.7184 24.1874 22.6064 24.3687C22.4998 24.5501 22.3398 24.6861 22.1264 24.7767C21.9131 24.8674 21.6358 24.9127 21.2944 24.9127C20.9478 24.9127 20.6678 24.8674 20.4544 24.7767C20.2464 24.6861 20.0944 24.5527 19.9984 24.3767C19.9024 24.1954 19.8438 23.9687 19.8224 23.6967H20.4784C20.5051 23.9847 20.5798 24.1794 20.7024 24.2807C20.8304 24.3767 21.0331 24.4247 21.3104 24.4247C21.5558 24.4247 21.7478 24.3741 21.8864 24.2727C22.0304 24.1661 22.1158 23.9741 22.1424 23.6967H22.8064ZM19.9984 28.0887C19.9984 28.1367 19.9958 28.2061 19.9904 28.2967C19.9904 28.3821 19.9878 28.4754 19.9824 28.5767C19.9771 28.6727 19.9718 28.7661 19.9664 28.8567C19.9611 28.9421 19.9558 29.0114 19.9504 29.0647L22.2464 25.4727H23.1104V29.7607H22.4544V27.2327C22.4544 27.1474 22.4544 27.0354 22.4544 26.8967C22.4598 26.7581 22.4651 26.6221 22.4704 26.4887C22.4758 26.3501 22.4811 26.2461 22.4864 26.1767L20.2064 29.7607H19.3344V25.4727H19.9984V28.0887ZM27.435 26.0647H26.035V29.7607H25.339V26.0647H23.955V25.4727H27.435V26.0647ZM28.9437 28.0887C28.9437 28.1367 28.9411 28.2061 28.9357 28.2967C28.9357 28.3821 28.9331 28.4754 28.9277 28.5767C28.9224 28.6727 28.9171 28.7661 28.9117 28.8567C28.9064 28.9421 28.9011 29.0114 28.8957 29.0647L31.1917 25.4727H32.0557V29.7607H31.3997V27.2327C31.3997 27.1474 31.3997 27.0354 31.3997 26.8967C31.4051 26.7581 31.4104 26.6221 31.4157 26.4887C31.4211 26.3501 31.4264 26.2461 31.4317 26.1767L29.1517 29.7607H28.2797V25.4727H28.9437V28.0887ZM34.1244 25.4727V27.2567H36.4524V25.4727H37.1564V29.7607H36.4524V27.8487H34.1244V29.7607H33.4204V25.4727H34.1244ZM41.1301 25.4727V26.0647H39.2181V29.7607H38.5141V25.4727H41.1301Z" fill="#6A6A6A"/>
<path d="M32.5751 14.2393V7.47126L32.8751 7.54326L30.1151 10.9153L30.0671 10.7713H35.2871V11.9593H29.2631L28.7111 10.8793L32.8271 5.83926H33.8231V14.2393H32.5751ZM37.1605 14.3713C36.8965 14.3713 36.6925 14.2953 36.5485 14.1433C36.4045 13.9833 36.3325 13.7593 36.3325 13.4713C36.3325 13.2073 36.4085 12.9913 36.5605 12.8233C36.7125 12.6553 36.9125 12.5713 37.1605 12.5713C37.4245 12.5713 37.6285 12.6513 37.7725 12.8113C37.9165 12.9633 37.9885 13.1833 37.9885 13.4713C37.9885 13.7353 37.9125 13.9513 37.7605 14.1193C37.6085 14.2873 37.4085 14.3713 37.1605 14.3713ZM41.5349 14.3593C40.9429 14.3593 40.4269 14.2233 39.9869 13.9513C39.5549 13.6793 39.1469 13.2233 38.7629 12.5833L39.7709 11.9473C39.9709 12.2433 40.1669 12.4873 40.3589 12.6793C40.5589 12.8633 40.7629 12.9993 40.9709 13.0873C41.1789 13.1753 41.3989 13.2193 41.6309 13.2193C41.9109 13.2193 42.1709 13.1513 42.4109 13.0153C42.6509 12.8713 42.8429 12.6753 42.9869 12.4273C43.1309 12.1793 43.2029 11.8993 43.2029 11.5873C43.2029 11.2753 43.1469 11.0113 43.0349 10.7953C42.9229 10.5713 42.7589 10.4033 42.5429 10.2913C42.3269 10.1713 42.0709 10.1113 41.7749 10.1113C41.6389 10.1113 41.4949 10.1273 41.3429 10.1593C41.1989 10.1833 41.0429 10.2233 40.8749 10.2793C40.7069 10.3273 40.5229 10.3913 40.3229 10.4713L39.9629 9.52326L42.5549 6.66726L42.8069 7.03926H39.2309V5.83926H44.0429L44.2829 6.31926L41.5349 9.36726L41.2349 9.05526C41.2989 9.02326 41.4029 8.99526 41.5469 8.97126C41.6989 8.93926 41.8229 8.92326 41.9189 8.92326C42.2709 8.92326 42.5989 8.99126 42.9029 9.12726C43.2149 9.25526 43.4829 9.43926 43.7069 9.67926C43.9389 9.91126 44.1189 10.1873 44.2469 10.5073C44.3829 10.8193 44.4509 11.1553 44.4509 11.5153C44.4509 12.0593 44.3189 12.5473 44.0549 12.9793C43.7989 13.4033 43.4509 13.7393 43.0109 13.9873C42.5709 14.2353 42.0789 14.3593 41.5349 14.3593Z" fill="#101623"/>
<path d="M16.0613 5.06333C16.2387 4.49451 17.0095 4.49451 17.1864 5.06333L17.8193 7.0965C17.858 7.22032 17.9331 7.32821 18.0341 7.40475C18.135 7.48128 18.2565 7.52255 18.3813 7.52265H20.4291C21.0023 7.52265 21.2401 8.28848 20.7769 8.64052L19.1207 9.89673C19.0195 9.97333 18.9442 10.0814 18.9055 10.2054C18.8669 10.3295 18.8668 10.4631 18.9053 10.5872L19.5383 12.6204C19.7157 13.1892 19.0917 13.6629 18.6273 13.3109L16.9711 12.0547C16.87 11.9781 16.7484 11.9368 16.6235 11.9368C16.4987 11.9368 16.377 11.9781 16.276 12.0547L14.6197 13.3109C14.156 13.6629 13.5325 13.1892 13.7094 12.6204L14.3423 10.5872C14.3809 10.4631 14.3808 10.3295 14.3421 10.2054C14.3034 10.0814 14.2281 9.97333 14.127 9.89673L12.4713 8.64113C12.0082 8.2891 12.2465 7.52326 12.8191 7.52326H14.8664C14.9912 7.5233 15.1129 7.48209 15.2139 7.40555C15.315 7.329 15.3902 7.22104 15.4289 7.09711L16.0619 5.06395L16.0613 5.06333Z" fill="#FFBA55"/>
<path d="M53.3511 4.27344V27.7269" stroke="#C2C9DD" stroke-opacity="0.35" stroke-width="0.732919" stroke-linecap="round"/>
<path d="M81.545 13.6513V6.83526L81.989 7.17126L80.333 8.04726L79.985 6.91926L82.229 5.71926H82.853V13.6513H81.545ZM80.213 14.2393V12.9913H84.221V14.2393H80.213ZM89.165 14.2393V7.47126L89.465 7.54326L86.705 10.9153L86.657 10.7713H91.877V11.9593H85.853L85.301 10.8793L89.417 5.83926H90.413V14.2393H89.165Z" fill="#101623"/>
<path d="M70.9523 13.2829L71.2943 12.9409L70.3904 12.037V10.6689H69.9017V12.2324L70.9523 13.2829ZM66.2371 6.27135H68.1916V5.29412H66.2371V6.27135ZM70.1461 14.5778C69.4701 14.5778 68.8941 14.3395 68.4178 13.8629C67.9416 13.3864 67.7033 12.8103 67.703 12.1347C67.7027 11.4591 67.9409 10.883 68.4178 10.4065C68.8947 9.92992 69.4708 9.69164 70.1461 9.69164C70.8213 9.69164 71.3976 9.92992 71.8748 10.4065C72.352 10.883 72.5901 11.4591 72.5891 12.1347C72.5881 12.8103 72.3499 13.3865 71.8743 13.8634C71.3987 14.3403 70.8226 14.5784 70.1461 14.5778ZM63.3055 13.6005C63.0367 13.6005 62.8068 13.5049 62.6156 13.3137C62.4243 13.1225 62.3286 12.8924 62.3282 12.6233V7.24857C62.3282 6.97983 62.424 6.74986 62.6156 6.55865C62.8071 6.36744 63.0371 6.27167 63.3055 6.27135H65.2599V5.29412C65.2599 5.02538 65.3557 4.79541 65.5472 4.6042C65.7388 4.41299 65.9687 4.31722 66.2371 4.31689H68.1916C68.4603 4.31689 68.6905 4.41266 68.882 4.6042C69.0735 4.79574 69.1692 5.02571 69.1688 5.29412V6.27135H71.1233C71.392 6.27135 71.6222 6.36711 71.8137 6.55865C72.0052 6.75019 72.1008 6.98016 72.1005 7.24857V9.33739C71.8155 9.1338 71.506 8.97908 71.1721 8.87321C70.8383 8.76734 70.4962 8.71441 70.1461 8.71441C69.2014 8.71441 68.3952 9.0483 67.7274 9.71607C67.0596 10.3838 66.7258 11.19 66.7258 12.1347C66.7258 12.3871 66.7523 12.6376 66.8054 12.8862C66.8585 13.1347 66.9419 13.3728 67.0556 13.6005H63.3055Z" fill="#9ABEEE"/>
<path d="M64.5751 24.6007C64.2711 24.6007 63.9964 24.6541 63.7511 24.7607C63.5057 24.8621 63.2977 25.0141 63.1271 25.2167C62.9564 25.4141 62.8257 25.6567 62.7351 25.9447C62.6444 26.2274 62.5991 26.5474 62.5991 26.9047C62.5991 27.3741 62.6711 27.7821 62.8151 28.1287C62.9644 28.4754 63.1831 28.7421 63.4711 28.9287C63.7644 29.1154 64.1297 29.2087 64.5671 29.2087C64.8177 29.2087 65.0551 29.1874 65.2791 29.1447C65.5031 29.1021 65.7217 29.0487 65.9351 28.9847V29.6087C65.7217 29.6887 65.5004 29.7474 65.2711 29.7847C65.0471 29.8221 64.7777 29.8407 64.4631 29.8407C63.8817 29.8407 63.3964 29.7207 63.0071 29.4807C62.6177 29.2407 62.3244 28.8994 62.1271 28.4567C61.9351 28.0141 61.8391 27.4941 61.8391 26.8967C61.8391 26.4647 61.8977 26.0701 62.0151 25.7127C62.1377 25.3554 62.3137 25.0461 62.5431 24.7847C62.7777 24.5234 63.0657 24.3234 63.4071 24.1847C63.7484 24.0407 64.1404 23.9687 64.5831 23.9687C64.8764 23.9687 65.1591 23.9981 65.4311 24.0567C65.7031 24.1154 65.9457 24.1981 66.1591 24.3047L65.8711 24.9127C65.6951 24.8327 65.4977 24.7607 65.2791 24.6967C65.0657 24.6327 64.8311 24.6007 64.5751 24.6007ZM70.0458 26.0647H68.6458V29.7607H67.9498V26.0647H66.5658V25.4727H70.0458V26.0647ZM72.5144 25.4007C73.0371 25.4007 73.4238 25.5154 73.6744 25.7447C73.9251 25.9741 74.0504 26.3394 74.0504 26.8407V29.7607H73.5384L73.4024 29.1527H73.3704C73.2478 29.3074 73.1198 29.4381 72.9864 29.5447C72.8584 29.6461 72.7091 29.7207 72.5384 29.7687C72.3731 29.8167 72.1704 29.8407 71.9304 29.8407C71.6744 29.8407 71.4424 29.7954 71.2344 29.7047C71.0318 29.6141 70.8718 29.4754 70.7544 29.2887C70.6371 29.0967 70.5784 28.8567 70.5784 28.5687C70.5784 28.1421 70.7464 27.8141 71.0824 27.5847C71.4184 27.3501 71.9358 27.2221 72.6344 27.2007L73.3624 27.1767V26.9207C73.3624 26.5634 73.2851 26.3154 73.1304 26.1767C72.9758 26.0381 72.7571 25.9687 72.4744 25.9687C72.2504 25.9687 72.0371 26.0034 71.8344 26.0727C71.6318 26.1367 71.4424 26.2114 71.2664 26.2967L71.0504 25.7687C71.2371 25.6674 71.4584 25.5821 71.7144 25.5127C71.9704 25.4381 72.2371 25.4007 72.5144 25.4007ZM72.7224 27.6887C72.1891 27.7101 71.8184 27.7954 71.6104 27.9447C71.4078 28.0941 71.3064 28.3047 71.3064 28.5767C71.3064 28.8167 71.3784 28.9927 71.5224 29.1047C71.6718 29.2167 71.8611 29.2727 72.0904 29.2727C72.4531 29.2727 72.7544 29.1741 72.9944 28.9767C73.2344 28.7741 73.3544 28.4647 73.3544 28.0487V27.6647L72.7224 27.6887ZM80.5188 25.4727L78.7508 27.5527L80.6708 29.7607H79.8708L78.0148 27.5847V29.7607H77.3588V27.5847L75.5028 29.7607H74.7028L76.6228 27.5527L74.8548 25.4727H75.6228L77.3588 27.5527V25.4727H78.0148V27.5527L79.7588 25.4727H80.5188Z" fill="#6A6A6A"/>
<path d="M100.941 4.27344V27.7269" stroke="#C2C9DD" stroke-opacity="0.35" stroke-width="0.732919" stroke-linecap="round"/>
<path d="M109.717 29.7607V24.0487H114.005V29.7607H113.293V24.6807H110.437V29.7607H109.717ZM117.097 25.4007C117.619 25.4007 118.006 25.5154 118.257 25.7447C118.507 25.9741 118.633 26.3394 118.633 26.8407V29.7607H118.121L117.985 29.1527H117.953C117.83 29.3074 117.702 29.4381 117.569 29.5447C117.441 29.6461 117.291 29.7207 117.121 29.7687C116.955 29.8167 116.753 29.8407 116.513 29.8407C116.257 29.8407 116.025 29.7954 115.817 29.7047C115.614 29.6141 115.454 29.4754 115.337 29.2887C115.219 29.0967 115.161 28.8567 115.161 28.5687C115.161 28.1421 115.329 27.8141 115.665 27.5847C116.001 27.3501 116.518 27.2221 117.217 27.2007L117.945 27.1767V26.9207C117.945 26.5634 117.867 26.3154 117.713 26.1767C117.558 26.0381 117.339 25.9687 117.057 25.9687C116.833 25.9687 116.619 26.0034 116.417 26.0727C116.214 26.1367 116.025 26.2114 115.849 26.2967L115.633 25.7687C115.819 25.6674 116.041 25.5821 116.297 25.5127C116.553 25.4381 116.819 25.4007 117.097 25.4007ZM117.305 27.6887C116.771 27.7101 116.401 27.7954 116.193 27.9447C115.99 28.0941 115.889 28.3047 115.889 28.5767C115.889 28.8167 115.961 28.9927 116.105 29.1047C116.254 29.2167 116.443 29.2727 116.673 29.2727C117.035 29.2727 117.337 29.1741 117.577 28.9767C117.817 28.7741 117.937 28.4647 117.937 28.0487V27.6647L117.305 27.6887ZM124.189 31.2487H123.501V29.7607H119.957V25.4727H120.661V29.1687H122.877V25.4727H123.581V29.1767H124.189V31.2487ZM125.676 28.0887C125.676 28.1367 125.673 28.2061 125.668 28.2967C125.668 28.3821 125.665 28.4754 125.66 28.5767C125.654 28.6727 125.649 28.7661 125.644 28.8567C125.638 28.9421 125.633 29.0114 125.628 29.0647L127.924 25.4727H128.788V29.7607H128.132V27.2327C128.132 27.1474 128.132 27.0354 128.132 26.8967C128.137 26.7581 128.142 26.6221 128.148 26.4887C128.153 26.3501 128.158 26.2461 128.164 26.1767L125.884 29.7607H125.012V25.4727H125.676V28.0887ZM131.808 25.3927C132.176 25.3927 132.491 25.4727 132.752 25.6327C133.019 25.7927 133.222 26.0194 133.36 26.3127C133.504 26.6007 133.576 26.9394 133.576 27.3287V27.7527H130.64C130.651 28.2381 130.774 28.6087 131.008 28.8647C131.248 29.1154 131.582 29.2407 132.008 29.2407C132.28 29.2407 132.52 29.2167 132.728 29.1687C132.942 29.1154 133.16 29.0407 133.384 28.9447V29.5607C133.166 29.6567 132.95 29.7261 132.736 29.7687C132.523 29.8167 132.27 29.8407 131.976 29.8407C131.571 29.8407 131.211 29.7581 130.896 29.5927C130.587 29.4274 130.344 29.1821 130.168 28.8567C129.998 28.5261 129.912 28.1234 129.912 27.6487C129.912 27.1794 129.99 26.7767 130.144 26.4407C130.304 26.1047 130.526 25.8461 130.808 25.6647C131.096 25.4834 131.43 25.3927 131.808 25.3927ZM131.8 25.9687C131.464 25.9687 131.198 26.0781 131 26.2967C130.808 26.5101 130.694 26.8087 130.656 27.1927H132.84C132.84 26.9474 132.803 26.7341 132.728 26.5527C132.654 26.3714 132.539 26.2301 132.384 26.1287C132.235 26.0221 132.04 25.9687 131.8 25.9687ZM135.372 25.4727V27.2567H137.7V25.4727H138.404V29.7607H137.7V27.8487H135.372V29.7607H134.668V25.4727H135.372ZM142.722 26.0647H141.322V29.7607H140.626V26.0647H139.242V25.4727H142.722V26.0647ZM143.566 29.7607V25.4727H144.27V27.2327H145.382C145.756 27.2327 146.062 27.2781 146.302 27.3687C146.542 27.4594 146.721 27.5954 146.838 27.7767C146.956 27.9527 147.014 28.1767 147.014 28.4487C147.014 28.7154 146.956 28.9474 146.838 29.1447C146.726 29.3421 146.548 29.4941 146.302 29.6007C146.062 29.7074 145.745 29.7607 145.35 29.7607H143.566ZM145.286 29.1927C145.59 29.1927 145.838 29.1421 146.03 29.0407C146.222 28.9341 146.318 28.7501 146.318 28.4887C146.318 28.2274 146.23 28.0514 146.054 27.9607C145.878 27.8647 145.625 27.8167 145.294 27.8167H144.27V29.1927H145.286ZM147.726 29.7607V25.4727H148.43V29.7607H147.726Z" fill="#6A6A6A"/>
<path d="M130.601 13.6513V6.83526L131.045 7.17126L129.389 8.04726L129.041 6.91926L131.285 5.71926H131.909V13.6513H130.601ZM129.269 14.2393V12.9913H133.277V14.2393H129.269ZM137.633 14.3593C136.993 14.3593 136.441 14.1833 135.977 13.8313C135.521 13.4793 135.169 12.9833 134.921 12.3433C134.673 11.6953 134.549 10.9273 134.549 10.0393C134.549 9.15126 134.673 8.38726 134.921 7.74726C135.169 7.09926 135.521 6.59926 135.977 6.24726C136.441 5.89526 136.993 5.71926 137.633 5.71926C138.273 5.71926 138.825 5.89526 139.289 6.24726C139.753 6.59926 140.109 7.09926 140.357 7.74726C140.605 8.38726 140.729 9.15126 140.729 10.0393C140.729 10.9273 140.605 11.6953 140.357 12.3433C140.109 12.9833 139.753 13.4793 139.289 13.8313C138.825 14.1833 138.273 14.3593 137.633 14.3593ZM137.633 13.1833C138.217 13.1833 138.669 12.9113 138.989 12.3673C139.309 11.8153 139.469 11.0393 139.469 10.0393C139.469 9.03926 139.309 8.26726 138.989 7.72326C138.669 7.17126 138.217 6.89526 137.633 6.89526C137.049 6.89526 136.597 7.17126 136.277 7.72326C135.957 8.26726 135.797 9.03926 135.797 10.0393C135.797 11.0393 135.957 11.8153 136.277 12.3673C136.597 12.9113 137.049 13.1833 137.633 13.1833ZM144.37 14.3233C143.818 14.3233 143.318 14.1993 142.87 13.9513C142.422 13.6953 142.05 13.3313 141.754 12.8593L142.474 12.0553C142.85 12.4713 143.178 12.7553 143.458 12.9073C143.738 13.0593 144.042 13.1353 144.37 13.1353C144.698 13.1353 144.994 13.0633 145.258 12.9193C145.522 12.7753 145.73 12.5793 145.882 12.3313C146.042 12.0833 146.122 11.8073 146.122 11.5033C146.122 11.1833 146.046 10.8993 145.894 10.6513C145.75 10.3953 145.554 10.1953 145.306 10.0513C145.058 9.89926 144.778 9.82326 144.466 9.82326C144.314 9.82326 144.17 9.83526 144.034 9.85926C143.898 9.87526 143.734 9.91926 143.542 9.99126C143.35 10.0633 143.098 10.1753 142.786 10.3273L142.102 9.40326L142.594 5.83926H147.13V7.03926H143.41L143.662 6.81126L143.266 9.47526L142.966 9.12726C143.046 9.04726 143.182 8.97126 143.374 8.89926C143.566 8.81926 143.778 8.75526 144.01 8.70726C144.25 8.65126 144.478 8.62326 144.694 8.62326C145.206 8.62326 145.662 8.74326 146.062 8.98326C146.47 9.21526 146.79 9.53926 147.022 9.95526C147.262 10.3713 147.382 10.8473 147.382 11.3833C147.382 11.9353 147.25 12.4353 146.986 12.8833C146.722 13.3233 146.362 13.6753 145.906 13.9393C145.45 14.1953 144.938 14.3233 144.37 14.3233Z" fill="#101623"/>
<path d="M114.859 9.27635C115.428 9.27635 115.973 9.05048 116.375 8.64845C116.777 8.24641 117.003 7.70113 117.003 7.13256C117.003 6.56399 116.777 6.01871 116.375 5.61667C115.973 5.21463 115.428 4.98877 114.859 4.98877C114.291 4.98877 113.746 5.21463 113.344 5.61667C112.941 6.01871 112.716 6.56399 112.716 7.13256C112.716 7.70113 112.941 8.24641 113.344 8.64845C113.746 9.05048 114.291 9.27635 114.859 9.27635ZM117.003 9.93597C117.347 9.93584 117.677 10.0697 117.923 10.3092C118.17 10.5487 118.313 10.8748 118.322 11.2183L117.184 12.3568C116.914 12.6271 116.722 12.9656 116.629 13.3364L116.559 13.6154C116.114 13.7869 115.557 13.8937 114.859 13.8937C111.396 13.8937 111.396 11.2552 111.396 11.2552C111.396 10.9053 111.535 10.5698 111.783 10.3224C112.03 10.075 112.366 9.93597 112.716 9.93597H117.003ZM121.621 7.62728C121.621 8.06464 121.447 8.48409 121.138 8.79335C120.828 9.10261 120.409 9.27635 119.972 9.27635C119.534 9.27635 119.115 9.10261 118.805 8.79335C118.496 8.48409 118.322 8.06464 118.322 7.62728C118.322 7.18992 118.496 6.77047 118.805 6.46121C119.115 6.15195 119.534 5.97821 119.972 5.97821C120.409 5.97821 120.828 6.15195 121.138 6.46121C121.447 6.77047 121.621 7.18992 121.621 7.62728ZM120.836 9.63782L117.65 12.8238C117.464 13.0095 117.332 13.242 117.268 13.4966L117.021 14.4848C116.997 14.583 116.998 14.686 117.025 14.7835C117.052 14.8811 117.104 14.9699 117.176 15.0415C117.247 15.1131 117.336 15.1649 117.434 15.1919C117.532 15.219 117.634 15.2203 117.733 15.1958L118.721 14.9491C118.975 14.8853 119.208 14.7535 119.394 14.5679L122.58 11.3819C122.808 11.1499 122.935 10.8371 122.934 10.5116C122.933 10.1861 122.803 9.87434 122.573 9.64422C122.342 9.41411 122.031 9.28431 121.705 9.28311C121.38 9.28191 121.067 9.40941 120.835 9.63782" fill="#9ABEEE"/>
<path d="M157.941 4.27344V27.7269" stroke="#C2C9DD" stroke-opacity="0.35" stroke-width="0.732919" stroke-linecap="round"/>
<path d="M171.701 26.8967C171.701 27.3394 171.645 27.7421 171.533 28.1047C171.421 28.4621 171.253 28.7714 171.029 29.0327C170.81 29.2941 170.536 29.4941 170.205 29.6327C169.88 29.7714 169.501 29.8407 169.069 29.8407C168.621 29.8407 168.232 29.7714 167.901 29.6327C167.57 29.4887 167.296 29.2887 167.077 29.0327C166.858 28.7714 166.696 28.4594 166.589 28.0967C166.482 27.7341 166.429 27.3314 166.429 26.8887C166.429 26.3021 166.525 25.7901 166.717 25.3527C166.909 24.9154 167.2 24.5741 167.589 24.3287C167.984 24.0834 168.48 23.9607 169.077 23.9607C169.648 23.9607 170.128 24.0834 170.517 24.3287C170.906 24.5687 171.2 24.9101 171.397 25.3527C171.6 25.7901 171.701 26.3047 171.701 26.8967ZM167.189 26.8967C167.189 27.3767 167.256 27.7901 167.389 28.1367C167.522 28.4834 167.728 28.7501 168.005 28.9367C168.288 29.1234 168.642 29.2167 169.069 29.2167C169.501 29.2167 169.853 29.1234 170.125 28.9367C170.402 28.7501 170.608 28.4834 170.741 28.1367C170.874 27.7901 170.941 27.3767 170.941 26.8967C170.941 26.1767 170.792 25.6141 170.493 25.2087C170.194 24.7981 169.722 24.5927 169.077 24.5927C168.645 24.5927 168.288 24.6861 168.005 24.8727C167.728 25.0541 167.522 25.3181 167.389 25.6647C167.256 26.0061 167.189 26.4167 167.189 26.8967ZM175.831 26.0647H174.431V29.7607H173.735V26.0647H172.351V25.4727H175.831V26.0647ZM177.804 25.3927C178.129 25.3927 178.412 25.4381 178.652 25.5287C178.892 25.6141 179.078 25.7421 179.212 25.9127C179.345 26.0781 179.412 26.2807 179.412 26.5207C179.412 26.7821 179.34 26.9901 179.196 27.1447C179.052 27.2941 178.854 27.4034 178.604 27.4727V27.5047C178.774 27.5527 178.932 27.6194 179.076 27.7047C179.22 27.7901 179.334 27.9021 179.42 28.0407C179.51 28.1794 179.556 28.3581 179.556 28.5767C179.556 28.8114 179.489 29.0247 179.356 29.2167C179.228 29.4087 179.028 29.5607 178.756 29.6727C178.489 29.7847 178.145 29.8407 177.724 29.8407C177.521 29.8407 177.326 29.8301 177.14 29.8087C176.958 29.7874 176.793 29.7554 176.644 29.7127C176.5 29.6701 176.372 29.6194 176.26 29.5607V28.9287C176.441 29.0141 176.654 29.0914 176.9 29.1607C177.15 29.2301 177.422 29.2647 177.716 29.2647C177.929 29.2647 178.121 29.2407 178.292 29.1927C178.468 29.1447 178.606 29.0701 178.708 28.9687C178.809 28.8621 178.86 28.7181 178.86 28.5367C178.86 28.3714 178.814 28.2381 178.724 28.1367C178.633 28.0301 178.497 27.9501 178.316 27.8967C178.14 27.8434 177.913 27.8167 177.636 27.8167H177.06V27.2407H177.524C177.892 27.2407 178.185 27.1927 178.404 27.0967C178.628 26.9954 178.74 26.8247 178.74 26.5847C178.74 26.3821 178.654 26.2301 178.484 26.1287C178.318 26.0274 178.078 25.9767 177.764 25.9767C177.529 25.9767 177.321 26.0007 177.14 26.0487C176.964 26.0914 176.769 26.1581 176.556 26.2487L176.308 25.6887C176.537 25.5874 176.777 25.5127 177.028 25.4647C177.278 25.4167 177.537 25.3927 177.804 25.3927ZM180.598 29.7607V25.4727H181.302V27.2327H182.414C182.787 27.2327 183.094 27.2781 183.334 27.3687C183.574 27.4594 183.752 27.5954 183.87 27.7767C183.987 27.9527 184.046 28.1767 184.046 28.4487C184.046 28.7154 183.987 28.9474 183.87 29.1447C183.758 29.3421 183.579 29.4941 183.334 29.6007C183.094 29.7074 182.776 29.7607 182.382 29.7607H180.598ZM182.318 29.1927C182.622 29.1927 182.87 29.1421 183.062 29.0407C183.254 28.9341 183.35 28.7501 183.35 28.4887C183.35 28.2274 183.262 28.0514 183.086 27.9607C182.91 27.8647 182.656 27.8167 182.326 27.8167H181.302V29.1927H182.318ZM184.758 29.7607V25.4727H185.462V29.7607H184.758ZM190.272 26.5527C190.272 26.8194 190.192 27.0274 190.032 27.1767C189.872 27.3261 189.667 27.4274 189.416 27.4807V27.5127C189.683 27.5501 189.915 27.6461 190.112 27.8007C190.309 27.9501 190.408 28.1847 190.408 28.5047C190.408 28.6861 190.373 28.8541 190.304 29.0087C190.24 29.1634 190.139 29.2967 190 29.4087C189.861 29.5207 189.683 29.6087 189.464 29.6727C189.245 29.7314 188.981 29.7607 188.672 29.7607H186.824V25.4727H188.664C188.968 25.4727 189.24 25.5074 189.48 25.5767C189.725 25.6407 189.917 25.7527 190.056 25.9127C190.2 26.0674 190.272 26.2807 190.272 26.5527ZM189.68 28.5047C189.68 28.2594 189.587 28.0834 189.4 27.9767C189.213 27.8701 188.939 27.8167 188.576 27.8167H187.528V29.1927H188.592C188.944 29.1927 189.213 29.1421 189.4 29.0407C189.587 28.9341 189.68 28.7554 189.68 28.5047ZM189.56 26.6407C189.56 26.4381 189.485 26.2914 189.336 26.2007C189.192 26.1047 188.955 26.0567 188.624 26.0567H187.528V27.2327H188.496C188.843 27.2327 189.107 27.1847 189.288 27.0887C189.469 26.9927 189.56 26.8434 189.56 26.6407ZM191.434 29.7607V25.4727H192.138V27.2327H193.25C193.623 27.2327 193.93 27.2781 194.17 27.3687C194.41 27.4594 194.588 27.5954 194.706 27.7767C194.823 27.9527 194.882 28.1767 194.882 28.4487C194.882 28.7154 194.823 28.9474 194.706 29.1447C194.594 29.3421 194.415 29.4941 194.17 29.6007C193.93 29.7074 193.612 29.7607 193.218 29.7607H191.434ZM193.154 29.1927C193.458 29.1927 193.706 29.1421 193.898 29.0407C194.09 28.9341 194.186 28.7501 194.186 28.4887C194.186 28.2274 194.098 28.0514 193.922 27.9607C193.746 27.8647 193.492 27.8167 193.162 27.8167H192.138V29.1927H193.154ZM195.594 29.7607V25.4727H196.298V29.7607H195.594Z" fill="#6A6A6A"/>
<path d="M187.601 13.6513V6.83526L188.045 7.17126L186.389 8.04726L186.041 6.91926L188.285 5.71926H188.909V13.6513H187.601ZM186.269 14.2393V12.9913H190.277V14.2393H186.269ZM192.113 14.2393L191.717 13.2553L194.285 10.3633C194.421 10.2193 194.561 10.0553 194.705 9.87126C194.857 9.67926 195.001 9.48326 195.137 9.28326C195.273 9.08326 195.381 8.88726 195.461 8.69526C195.549 8.49526 195.593 8.30726 195.593 8.13126C195.593 7.87526 195.541 7.65926 195.437 7.48326C195.341 7.29926 195.197 7.15926 195.005 7.06326C194.821 6.96726 194.597 6.91926 194.333 6.91926C194.101 6.91926 193.873 6.98726 193.649 7.12326C193.425 7.25926 193.221 7.45126 193.037 7.69926C192.853 7.94726 192.709 8.23526 192.605 8.56326L191.609 7.93926C191.745 7.47526 191.949 7.07926 192.221 6.75126C192.501 6.41526 192.833 6.15926 193.217 5.98326C193.609 5.80726 194.033 5.71926 194.489 5.71926C194.961 5.71926 195.381 5.81926 195.749 6.01926C196.117 6.21126 196.405 6.48326 196.613 6.83526C196.821 7.17926 196.925 7.57926 196.925 8.03526C196.925 8.21926 196.905 8.40726 196.865 8.59926C196.825 8.79126 196.761 8.99126 196.673 9.19926C196.585 9.39926 196.473 9.61126 196.337 9.83526C196.201 10.0513 196.037 10.2793 195.845 10.5193C195.661 10.7593 195.449 11.0113 195.209 11.2753L193.301 13.3513L193.061 12.9913H197.189V14.2393H192.113ZM200.655 14.3233C200.103 14.3233 199.603 14.1993 199.155 13.9513C198.707 13.6953 198.335 13.3313 198.039 12.8593L198.759 12.0553C199.135 12.4713 199.463 12.7553 199.743 12.9073C200.023 13.0593 200.327 13.1353 200.655 13.1353C200.983 13.1353 201.279 13.0633 201.543 12.9193C201.807 12.7753 202.015 12.5793 202.167 12.3313C202.327 12.0833 202.407 11.8073 202.407 11.5033C202.407 11.1833 202.331 10.8993 202.179 10.6513C202.035 10.3953 201.839 10.1953 201.591 10.0513C201.343 9.89926 201.063 9.82326 200.751 9.82326C200.599 9.82326 200.455 9.83526 200.319 9.85926C200.183 9.87526 200.019 9.91926 199.827 9.99126C199.635 10.0633 199.383 10.1753 199.071 10.3273L198.387 9.40326L198.879 5.83926H203.415V7.03926H199.695L199.947 6.81126L199.551 9.47526L199.251 9.12726C199.331 9.04726 199.467 8.97126 199.659 8.89926C199.851 8.81926 200.063 8.75526 200.295 8.70726C200.535 8.65126 200.763 8.62326 200.979 8.62326C201.491 8.62326 201.947 8.74326 202.347 8.98326C202.755 9.21526 203.075 9.53926 203.307 9.95526C203.547 10.3713 203.667 10.8473 203.667 11.3833C203.667 11.9353 203.535 12.4353 203.271 12.8833C203.007 13.3233 202.647 13.6753 202.191 13.9393C201.735 14.1953 201.223 14.3233 200.655 14.3233Z" fill="#101623"/>
<path d="M171.343 13.447L171.159 13.9843C168.791 13.7981 167.407 12.3624 167.407 10.964V10.584C167.407 10.2817 167.542 9.99169 167.783 9.77789C168.023 9.5641 168.349 9.44399 168.69 9.44399H172.572C172.091 9.74363 171.699 10.1419 171.428 10.6049C171.158 11.068 171.017 11.5822 171.017 12.104C171.017 12.5828 171.133 13.0373 171.343 13.447ZM171.682 4.50391C172.306 4.50391 172.904 4.72411 173.345 5.11606C173.786 5.50802 174.034 6.03963 174.034 6.59394C174.034 7.14825 173.786 7.67986 173.345 8.07182C172.904 8.46378 172.306 8.68397 171.682 8.68397C171.059 8.68397 170.461 8.46378 170.02 8.07182C169.579 7.67986 169.331 7.14825 169.331 6.59394C169.331 6.03963 169.579 5.50802 170.02 5.11606C170.461 4.72411 171.059 4.50391 171.682 4.50391ZM177.668 12.104C177.668 12.5671 177.532 13.0222 177.274 13.4243C177.015 13.8263 176.643 14.1615 176.194 14.3966C175.745 14.6316 175.235 14.7585 174.714 14.7645C174.193 14.7706 173.68 14.6557 173.224 14.4312L172.034 14.7527C171.987 14.7655 171.936 14.7666 171.889 14.756C171.841 14.7454 171.797 14.7234 171.762 14.6924C171.727 14.6614 171.702 14.6226 171.691 14.58C171.679 14.5375 171.68 14.4929 171.694 14.4509L172.057 13.3938C171.836 13.0386 171.709 12.6432 171.686 12.2377C171.663 11.8323 171.745 11.4276 171.926 11.0547C172.106 10.6817 172.38 10.3504 172.727 10.0861C173.073 9.82186 173.484 9.63162 173.926 9.52998C174.368 9.42834 174.83 9.418 175.278 9.49976C175.725 9.58151 176.146 9.75319 176.507 10.0016C176.868 10.2501 177.16 10.5687 177.362 10.9331C177.563 11.2976 177.668 11.6981 177.668 12.104ZM173.82 10.964C173.707 10.964 173.598 11.004 173.518 11.0753C173.438 11.1466 173.392 11.2432 173.392 11.344C173.392 11.4448 173.438 11.5415 173.518 11.6127C173.598 11.684 173.707 11.724 173.82 11.724H175.53C175.644 11.724 175.752 11.684 175.832 11.6127C175.913 11.5415 175.958 11.4448 175.958 11.344C175.958 11.2432 175.913 11.1466 175.832 11.0753C175.752 11.004 175.644 10.964 175.53 10.964H173.82ZM173.392 12.864C173.392 12.9648 173.438 13.0615 173.518 13.1327C173.598 13.204 173.707 13.244 173.82 13.244H174.675C174.788 13.244 174.897 13.204 174.977 13.1327C175.058 13.0615 175.103 12.9648 175.103 12.864C175.103 12.7633 175.058 12.6666 174.977 12.5953C174.897 12.5241 174.788 12.484 174.675 12.484H173.82C173.707 12.484 173.598 12.5241 173.518 12.5953C173.438 12.6666 173.392 12.7633 173.392 12.864Z" fill="#9ABEEE"/>
</svg>
