<svg width="75" height="73" viewBox="0 0 75 73" fill="none" xmlns="http://www.w3.org/2000/svg">
<circle cx="38.5" cy="36.5" r="28.5" fill="url(#paint0_linear_2843_73103)"/>
<circle cx="72" cy="11" r="3" fill="#FFB800" fill-opacity="0.7"/>
<circle cx="8" cy="4" r="4" fill="#FFB800" fill-opacity="0.7"/>
<circle cx="4" cy="54" r="2" fill="#FFB800" fill-opacity="0.7"/>
<circle cx="67" cy="65" r="1" fill="#FFB800" fill-opacity="0.7"/>
<mask id="mask0_2843_73103" style="mask-type:alpha" maskUnits="userSpaceOnUse" x="30" y="27" width="16" height="20">
<path fill-rule="evenodd" clip-rule="evenodd" d="M44.0015 35.75V40.75L45.2915 42.04C45.9215 42.67 45.4715 43.75 44.5815 43.75H31.4115C30.5215 43.75 30.0815 42.67 30.7115 42.04L32.0015 40.75V35.75C32.0015 32.67 33.6315 30.11 36.5015 29.43V28.75C36.5015 27.92 37.1715 27.25 38.0015 27.25C38.8315 27.25 39.5015 27.92 39.5015 28.75V29.43C42.3615 30.11 44.0015 32.68 44.0015 35.75ZM40.0015 44.75C40.0015 45.85 39.1015 46.75 38.0015 46.75C36.8915 46.75 36.0015 45.85 36.0015 44.75H40.0015Z" fill="black"/>
</mask>
<g mask="url(#mask0_2843_73103)">
<rect x="26" y="25" width="24" height="24" fill="white"/>
</g>
<circle cx="43" cy="2" r="1" fill="#FFB800" fill-opacity="0.7"/>
<circle cx="25.5" cy="71.5" r="1.5" fill="#FFB800" fill-opacity="0.7"/>
<circle cx="49.5" cy="69.5" r="0.5" fill="#FFB800" fill-opacity="0.7"/>
<circle cx="69" cy="45" r="1" fill="#FFB800" fill-opacity="0.7"/>
<circle cx="0.5" cy="30.5" r="0.5" fill="#FFB800" fill-opacity="0.7"/>
<defs>
<linearGradient id="paint0_linear_2843_73103" x1="67" y1="65.1385" x2="10" y2="8.13847" gradientUnits="userSpaceOnUse">
<stop stop-color="#FFB800"/>
<stop offset="1" stop-color="#FFDA7B"/>
</linearGradient>
</defs>
</svg>
