<svg width="136" height="136" viewBox="0 0 136 136" fill="none" xmlns="http://www.w3.org/2000/svg">
<g filter="url(#filter0_d_0_83)">
<rect x="50" y="50" width="36" height="36" rx="12" fill="#2972FE" fill-opacity="0.1"/>
<mask id="mask0_0_83" style="mask-type:alpha" maskUnits="userSpaceOnUse" x="61" y="62" width="14" height="12">
<path d="M68.8996 73.5381C68.3929 73.9981 67.6129 73.9981 67.1063 73.5314L67.0329 73.4648C63.5329 70.2981 61.2463 68.2248 61.3329 65.6381C61.3729 64.5048 61.9529 63.4181 62.8929 62.7781C64.6529 61.5781 66.8263 62.1381 67.9996 63.5114C69.1729 62.1381 71.3463 61.5714 73.1063 62.7781C74.0463 63.4181 74.6263 64.5048 74.6663 65.6381C74.7596 68.2248 72.4663 70.2981 68.9663 73.4781L68.8996 73.5381Z" fill="black"/>
</mask>
<g mask="url(#mask0_0_83)">
<rect x="60" y="60" width="16" height="16" fill="#2972FE"/>
</g>
</g>
<defs>
<filter id="filter0_d_0_83" x="0" y="0" width="136" height="136" filterUnits="userSpaceOnUse" color-interpolation-filters="sRGB">
<feFlood flood-opacity="0" result="BackgroundImageFix"/>
<feColorMatrix in="SourceAlpha" type="matrix" values="0 0 0 0 0 0 0 0 0 0 0 0 0 0 0 0 0 0 127 0" result="hardAlpha"/>
<feOffset/>
<feGaussianBlur stdDeviation="25"/>
<feColorMatrix type="matrix" values="0 0 0 0 0.352941 0 0 0 0 0.423529 0 0 0 0 0.917647 0 0 0 0.08 0"/>
<feBlend mode="normal" in2="BackgroundImageFix" result="effect1_dropShadow_0_83"/>
<feBlend mode="normal" in="SourceGraphic" in2="effect1_dropShadow_0_83" result="shape"/>
</filter>
</defs>
</svg>
