<svg width="380" height="32" viewBox="0 0 380 32" fill="none" xmlns="http://www.w3.org/2000/svg">
<mask id="mask0_2846_77047" style="mask-type:alpha" maskUnits="userSpaceOnUse" x="90" y="5" width="24" height="22">
<path d="M102 23.3595L107.533 26.7062C108.547 27.3195 109.787 26.4129 109.52 25.2662L108.053 18.9729L112.947 14.7329C113.84 13.9595 113.36 12.4929 112.187 12.3995L105.747 11.8529L103.227 5.90619C102.773 4.82619 101.227 4.82619 100.773 5.90619L98.2533 11.8395L91.8133 12.3862C90.64 12.4795 90.16 13.9462 91.0533 14.7195L95.9466 18.9595L94.48 25.2529C94.2133 26.3995 95.4533 27.3062 96.4666 26.6929L102 23.3595Z" fill="black"/>
</mask>
<g mask="url(#mask0_2846_77047)">
<rect x="86" width="32" height="32" fill="#2972FE"/>
</g>
<mask id="mask1_2846_77047" style="mask-type:alpha" maskUnits="userSpaceOnUse" x="134" y="5" width="24" height="22">
<path d="M146 23.3595L151.533 26.7062C152.547 27.3195 153.787 26.4129 153.52 25.2662L152.053 18.9729L156.947 14.7329C157.84 13.9595 157.36 12.4929 156.187 12.3995L149.747 11.8529L147.227 5.90619C146.773 4.82619 145.227 4.82619 144.773 5.90619L142.253 11.8395L135.813 12.3862C134.64 12.4795 134.16 13.9462 135.053 14.7195L139.947 18.9595L138.48 25.2529C138.213 26.3995 139.453 27.3062 140.467 26.6929L146 23.3595Z" fill="black"/>
</mask>
<g mask="url(#mask1_2846_77047)">
<rect x="130" width="32" height="32" fill="#2972FE"/>
</g>
<mask id="mask2_2846_77047" style="mask-type:alpha" maskUnits="userSpaceOnUse" x="178" y="5" width="24" height="22">
<path d="M190 23.3595L195.533 26.7062C196.547 27.3195 197.787 26.4129 197.52 25.2662L196.053 18.9729L200.947 14.7329C201.84 13.9595 201.36 12.4929 200.187 12.3995L193.747 11.8529L191.227 5.90619C190.773 4.82619 189.227 4.82619 188.773 5.90619L186.253 11.8395L179.813 12.3862C178.64 12.4795 178.16 13.9462 179.053 14.7195L183.947 18.9595L182.48 25.2529C182.213 26.3995 183.453 27.3062 184.467 26.6929L190 23.3595Z" fill="black"/>
</mask>
<g mask="url(#mask2_2846_77047)">
<rect x="174" width="32" height="32" fill="#2972FE"/>
</g>
<mask id="mask3_2846_77047" style="mask-type:alpha" maskUnits="userSpaceOnUse" x="222" y="5" width="24" height="22">
<path d="M234 23.3595L239.533 26.7062C240.547 27.3195 241.787 26.4129 241.52 25.2662L240.053 18.9729L244.947 14.7329C245.84 13.9595 245.36 12.4929 244.187 12.3995L237.747 11.8529L235.227 5.90619C234.773 4.82619 233.227 4.82619 232.773 5.90619L230.253 11.8395L223.813 12.3862C222.64 12.4795 222.16 13.9462 223.053 14.7195L227.947 18.9595L226.48 25.2529C226.213 26.3995 227.453 27.3062 228.467 26.6929L234 23.3595Z" fill="black"/>
</mask>
<g mask="url(#mask3_2846_77047)">
<rect x="218" width="32" height="32" fill="#2972FE"/>
</g>
<mask id="mask4_2846_77047" style="mask-type:alpha" maskUnits="userSpaceOnUse" x="266" y="5" width="24" height="22">
<path fill-rule="evenodd" clip-rule="evenodd" d="M281.745 11.8327L288.198 12.3927C289.371 12.486 289.838 13.9527 288.945 14.726L284.051 18.966L285.518 25.2727C285.785 26.4194 284.545 27.326 283.531 26.7127L277.998 23.366L272.465 26.6994C271.451 27.3127 270.211 26.406 270.478 25.2594L271.945 18.966L267.051 14.726C266.158 13.9527 266.638 12.486 267.811 12.3927L274.251 11.846L276.771 5.89936C277.225 4.81936 278.771 4.81936 279.225 5.89936L281.745 11.8327ZM272.985 23.8994L277.998 20.8727L283.025 23.9127L281.691 18.206L286.118 14.366L280.278 13.8594L277.998 8.47269L275.731 13.846L269.891 14.3527L274.318 18.1927L272.985 23.8994Z" fill="black"/>
</mask>
<g mask="url(#mask4_2846_77047)">
<rect x="262" width="32" height="32" fill="#2972FE"/>
</g>
</svg>
