<svg width="24" height="25" viewBox="0 0 24 25" fill="none" xmlns="http://www.w3.org/2000/svg">
<g clip-path="url(#clip0_2841_71282)">
<path d="M23.9873 12.7339C23.9873 11.7097 23.9057 10.9622 23.729 10.1871H12.239V14.81H18.9833C18.8474 15.9589 18.1132 17.689 16.4814 18.8516L16.4585 19.0064L20.0915 21.8712L20.3431 21.8968C22.6547 19.7237 23.9873 16.5264 23.9873 12.7339Z" fill="#4285F4"/>
<path d="M12.2391 24.9141C15.5433 24.9141 18.3172 23.8068 20.3433 21.8967L16.4815 18.8516C15.4481 19.5852 14.0612 20.0973 12.2391 20.0973C9.00292 20.0973 6.25623 17.9243 5.27711 14.9208L5.13359 14.9332L1.35604 17.909L1.30664 18.0488C3.31906 22.1181 7.45273 24.9141 12.2391 24.9141Z" fill="#34A853"/>
<path d="M5.27726 14.9208C5.01892 14.1457 4.8694 13.3152 4.8694 12.457C4.8694 11.5988 5.01892 10.7684 5.26367 9.99331L5.25683 9.82823L1.43194 6.80457L1.3068 6.86516C0.477385 8.5538 0.00146484 10.4501 0.00146484 12.457C0.00146484 14.464 0.477385 16.3602 1.3068 18.0488L5.27726 14.9208Z" fill="#FBBC05"/>
<path d="M12.2391 4.8167C14.5371 4.8167 16.0871 5.8271 16.971 6.67147L20.4248 3.23884C18.3036 1.23187 15.5433 0 12.2391 0C7.45273 0 3.31906 2.7959 1.30664 6.86517L5.26351 9.99332C6.25622 6.98979 9.00291 4.8167 12.2391 4.8167Z" fill="#EB4335"/>
</g>
<defs>
<clipPath id="clip0_2841_71282">
<rect width="24" height="25" fill="white"/>
</clipPath>
</defs>
</svg>
