<svg width="60" height="60" viewBox="0 0 60 60" fill="none" xmlns="http://www.w3.org/2000/svg">
<path opacity="0.5" d="M30 0C24.0666 0 18.2664 1.75947 13.3329 5.05591C8.39943 8.35235 4.55426 13.0377 2.28363 18.5195C0.0129985 24.0013 -0.581101 30.0333 0.576455 35.8527C1.73401 41.6721 4.59123 47.0176 8.78681 51.2132C12.9824 55.4088 18.3279 58.266 24.1473 59.4235C29.9667 60.5811 35.9987 59.987 41.4805 57.7164C46.9623 55.4457 51.6476 51.6006 54.9441 46.6671C58.2405 41.7336 60 35.9334 60 30C60 26.0603 59.224 22.1593 57.7164 18.5195C56.2088 14.8797 53.999 11.5726 51.2132 8.78679C48.4274 6.00104 45.1203 3.79125 41.4805 2.28361C37.8407 0.775973 33.9397 0 30 0ZM30 54C25.2533 54 20.6131 52.5924 16.6663 49.9553C12.7195 47.3181 9.64341 43.5698 7.8269 39.1844C6.0104 34.799 5.53512 29.9734 6.46117 25.3178C7.38721 20.6623 9.67299 16.3859 13.0294 13.0294C16.3859 9.67297 20.6623 7.3872 25.3178 6.46115C29.9734 5.53511 34.799 6.01039 39.1844 7.82689C43.5698 9.64339 47.3181 12.7195 49.9553 16.6663C52.5924 20.6131 54 25.2532 54 30C54 36.3652 51.4714 42.4697 46.9706 46.9706C42.4697 51.4714 36.3652 54 30 54Z" fill="#2972FE" fill-opacity="0.3"/>
<path d="M53.8128 27.0077C54.0194 28.6516 55.3431 30 57 30C58.6568 30 60.0155 28.6535 59.8501 27.005C59.5579 24.0927 58.8406 21.2335 57.7164 18.5195C56.2087 14.8797 53.999 11.5726 51.2132 8.7868C48.4274 6.00104 45.1203 3.79125 41.4805 2.28361C38.7665 1.15944 35.9072 0.442076 32.995 0.149876C31.3465 -0.0155359 30 1.34315 30 3C30 4.65685 31.3484 5.98064 32.9923 6.18718C38.2542 6.84827 43.1808 9.23971 46.9706 13.0294C50.7603 16.8192 53.1517 21.7458 53.8128 27.0077Z" fill="#2972FE"/>
</svg>
