<svg width="18" height="18" viewBox="0 0 18 18" fill="none" xmlns="http://www.w3.org/2000/svg">
<path fill-rule="evenodd" clip-rule="evenodd" d="M14.4 2.66333H16.2C16.6774 2.66333 17.1352 2.84299 17.4728 3.16279C17.8104 3.48259 18 3.91633 18 4.3686V15.737C18 16.1893 17.8104 16.623 17.4728 16.9428C17.1352 17.2626 16.6774 17.4423 16.2 17.4423H1.8C1.32261 17.4423 0.864773 17.2626 0.527208 16.9428C0.189642 16.623 0 16.1893 0 15.737L0 4.3686C0 3.91633 0.189642 3.48259 0.527208 3.16279C0.864773 2.84299 1.32261 2.66333 1.8 2.66333H3.6V0.389648H4.8V2.66333H13.2V0.389648H14.4V2.66333ZM7.2 9.48439H3.6V8.34754H7.2V9.48439ZM14.4 8.34754H10.8V9.48439H14.4V8.34754ZM7.2 12.8949H3.6V11.7581H7.2V12.8949ZM10.8 12.8949H14.4V11.7581H10.8V12.8949Z" fill="#2B2B2B"/>
</svg>
