<svg preserveAspectRatio="none" width="100%" height="100%" overflow="visible" style="display: block;" viewBox="0 0 17 17" fill="none" xmlns="http://www.w3.org/2000/svg">
<g id="teenyicons:appointments-solid" clip-path="url(#clip0_0_4)">
<path id="Vector" fill-rule="evenodd" clip-rule="evenodd" d="M13.3316 2.51522H14.9421C15.3692 2.51522 15.7789 2.6849 16.0809 2.98694C16.383 3.28897 16.5526 3.69861 16.5526 4.12575V14.8626C16.5526 15.2897 16.383 15.6994 16.0809 16.0014C15.7789 16.3034 15.3692 16.4731 14.9421 16.4731H2.05789C1.63076 16.4731 1.22111 16.3034 0.919081 16.0014C0.617048 15.6994 0.447368 15.2897 0.447368 14.8626L0.447368 4.12575C0.447368 3.69861 0.617048 3.28897 0.919081 2.98694C1.22111 2.6849 1.63076 2.51522 2.05789 2.51522H3.66842V0.367856H4.74211V2.51522H12.2579V0.367856H13.3316V2.51522ZM6.88947 8.95733H3.66842V7.88365H6.88947V8.95733ZM13.3316 7.88365H10.1105V8.95733H13.3316V7.88365ZM6.88947 12.1784H3.66842V11.1047H6.88947V12.1784ZM10.1105 12.1784H13.3316V11.1047H10.1105V12.1784Z" fill="#2B2B2B"/>
</g>
<defs>
<clipPath id="clip0_0_4">
<rect width="17" height="17" fill="white"/>
</clipPath>
</defs>
</svg>
