<svg preserveAspectRatio="none" width="100%" height="100%" overflow="visible" style="display: block;" viewBox="0 0 17 18" fill="none" xmlns="http://www.w3.org/2000/svg">
<path id="Vector" d="M6.52092 15.6883L6.21633 16.6309C2.29358 16.3042 0 13.7857 0 11.3326V10.6659C0 10.1355 0.223883 9.62687 0.622398 9.25182C1.02091 8.87677 1.56141 8.66607 2.125 8.66607H8.55667C7.76037 9.19171 7.1105 9.89031 6.66215 10.7026C6.21381 11.515 5.98021 12.417 5.98117 13.3324C5.98117 14.1724 6.17383 14.9696 6.52092 15.6883ZM7.08333 0C8.11657 0 9.10749 0.386282 9.8381 1.07387C10.5687 1.76145 10.9792 2.69402 10.9792 3.66642C10.9792 4.63881 10.5687 5.57138 9.8381 6.25896C9.10749 6.94655 8.11657 7.33283 7.08333 7.33283C6.05009 7.33283 5.05917 6.94655 4.32856 6.25896C3.59795 5.57138 3.1875 4.63881 3.1875 3.66642C3.1875 2.69402 3.59795 1.76145 4.32856 1.07387C5.05917 0.386282 6.05009 0 7.08333 0ZM17 13.3324C17.0002 14.1448 16.7751 14.9431 16.3469 15.6484C15.9188 16.3538 15.3023 16.9417 14.5587 17.3541C13.815 17.7664 12.9698 17.9889 12.1067 17.9996C11.2436 18.0103 10.3925 17.8087 9.63758 17.4148L7.66558 17.9788C7.58743 18.0012 7.50425 18.0033 7.42496 17.9846C7.34568 17.966 7.27326 17.9275 7.21548 17.8731C7.1577 17.8187 7.11672 17.7505 7.09693 17.6759C7.07715 17.6013 7.0793 17.523 7.10317 17.4495L7.70383 15.5949C7.33731 14.9719 7.12716 14.2782 7.08948 13.567C7.05181 12.8557 7.18761 12.1458 7.48648 11.4916C7.78535 10.8373 8.23937 10.2562 8.81375 9.79256C9.38813 9.32895 10.0676 8.99522 10.8002 8.81692C11.5328 8.63862 12.2991 8.62049 13.0402 8.76391C13.7814 8.90733 14.4779 9.20849 15.0763 9.64434C15.6747 10.0802 16.1592 10.6392 16.4927 11.2784C16.8261 11.9177 16.9996 12.6203 17 13.3324ZM10.625 11.3326C10.4371 11.3326 10.257 11.4028 10.1241 11.5278C9.99129 11.6528 9.91667 11.8224 9.91667 11.9992C9.91667 12.176 9.99129 12.3455 10.1241 12.4706C10.257 12.5956 10.4371 12.6658 10.625 12.6658H13.4583C13.6462 12.6658 13.8264 12.5956 13.9592 12.4706C14.092 12.3455 14.1667 12.176 14.1667 11.9992C14.1667 11.8224 14.092 11.6528 13.9592 11.5278C13.8264 11.4028 13.6462 11.3326 13.4583 11.3326H10.625ZM9.91667 14.6657C9.91667 14.8425 9.99129 15.012 10.1241 15.137C10.257 15.2621 10.4371 15.3323 10.625 15.3323H12.0417C12.2295 15.3323 12.4097 15.2621 12.5425 15.137C12.6754 15.012 12.75 14.8425 12.75 14.6657C12.75 14.4889 12.6754 14.3193 12.5425 14.1943C12.4097 14.0693 12.2295 13.999 12.0417 13.999H10.625C10.4371 13.999 10.257 14.0693 10.1241 14.1943C9.99129 14.3193 9.91667 14.4889 9.91667 14.6657Z" fill="#2B2B2B"/>
</svg>
