<svg preserveAspectRatio="none" width="100%" height="100%" overflow="visible" style="display: block;" viewBox="0 0 17 17" fill="none" xmlns="http://www.w3.org/2000/svg">
<path id="Vector" d="M7.44499 8.09898e-08C9.25271 -0.000254644 10.9988 0.60036 12.3573 1.68975C13.7158 2.77913 14.5939 4.28285 14.8278 5.92025L16.9215 8.9284C17.0592 9.12645 17.0313 9.4214 16.7121 9.5472L14.8892 10.2595V12.75C14.8892 13.2009 14.6932 13.6333 14.3441 13.9521C13.9951 14.2709 13.5218 14.45 13.0282 14.45H11.168L11.1671 17H2.79234V13.8601C2.79234 12.8571 2.38663 11.9077 1.63383 11.0509C0.756995 10.0508 0.207309 8.84479 0.0481085 7.5718C-0.111092 6.29881 0.12667 5.01063 0.734 3.8557C1.34133 2.70076 2.29352 1.72606 3.48085 1.0439C4.66817 0.361735 6.04233 -0.000128495 7.44499 8.09898e-08ZM6.95181 4.89855C6.64475 4.62753 6.23343 4.47752 5.80646 4.48083C5.37949 4.48414 4.97103 4.64051 4.66904 4.91625C4.36706 5.19199 4.19572 5.56504 4.19192 5.95506C4.18813 6.34507 4.35218 6.72085 4.64875 7.00145L7.44499 9.55655L10.2412 7.00145C10.3967 6.8642 10.5208 6.70004 10.6061 6.51855C10.6914 6.33705 10.7362 6.14185 10.7381 5.94434C10.7399 5.74683 10.6987 5.55097 10.6167 5.36818C10.5348 5.18538 10.4139 5.01932 10.2609 4.87969C10.108 4.74005 9.92618 4.62963 9.72603 4.55487C9.52589 4.48012 9.31145 4.44252 9.09523 4.44428C8.87901 4.44603 8.66534 4.48711 8.46668 4.5651C8.26802 4.6431 8.08836 4.75645 7.93817 4.89855L7.44499 5.34905L6.95181 4.89855Z" fill="#2B2B2B"/>
</svg>
