<svg preserveAspectRatio="none" width="100%" height="100%" overflow="visible" style="display: block;" viewBox="0 0 19 15" fill="none" xmlns="http://www.w3.org/2000/svg">
<path id="Vector" fill-rule="evenodd" clip-rule="evenodd" d="M6.6139 13.6491C3.81805 11.6594 0 8.37269 0 5.26506C0 0.0733212 5.225 -1.8652 9.5 2.14419C13.775 -1.8652 19 0.0733212 19 5.26506C19 8.37269 15.181 11.6594 12.3861 13.6491C11.1207 14.5491 10.488 15 9.5 15C8.512 15 7.8793 14.55 6.6139 13.6491ZM13.775 2.86772C13.964 2.86772 14.1452 2.93744 14.2788 3.06154C14.4124 3.18565 14.4875 3.35397 14.4875 3.52948V4.63241H15.675C15.864 4.63241 16.0452 4.70213 16.1788 4.82624C16.3124 4.95034 16.3875 5.11866 16.3875 5.29417C16.3875 5.46968 16.3124 5.638 16.1788 5.76211C16.0452 5.88621 15.864 5.95593 15.675 5.95593H14.4875V7.05887C14.4875 7.23438 14.4124 7.4027 14.2788 7.5268C14.1452 7.65091 13.964 7.72063 13.775 7.72063C13.586 7.72063 13.4048 7.65091 13.2712 7.5268C13.1376 7.4027 13.0625 7.23438 13.0625 7.05887V5.95593H11.875C11.686 5.95593 11.5048 5.88621 11.3712 5.76211C11.2376 5.638 11.1625 5.46968 11.1625 5.29417C11.1625 5.11866 11.2376 4.95034 11.3712 4.82624C11.5048 4.70213 11.686 4.63241 11.875 4.63241H13.0625V3.52948C13.0625 3.35397 13.1376 3.18565 13.2712 3.06154C13.4048 2.93744 13.586 2.86772 13.775 2.86772Z" fill="#2B2B2B"/>
</svg>
