<svg width="18" height="18" viewBox="0 0 18 18" fill="none" xmlns="http://www.w3.org/2000/svg">
<path d="M7.02092 15.6883L6.71633 16.6309C2.79358 16.3042 0.5 13.7857 0.5 11.3326V10.6659C0.5 10.1355 0.723883 9.62687 1.1224 9.25182C1.52091 8.87677 2.06141 8.66607 2.625 8.66607H9.05667C8.26037 9.19172 7.6105 9.89031 7.16215 10.7026C6.71381 11.515 6.48021 12.4171 6.48117 13.3324C6.48117 14.1724 6.67383 14.9696 7.02092 15.6883ZM7.58333 0C8.61657 0 9.60749 0.386282 10.3381 1.07387C11.0687 1.76145 11.4792 2.69402 11.4792 3.66642C11.4792 4.63881 11.0687 5.57138 10.3381 6.25896C9.60749 6.94655 8.61657 7.33283 7.58333 7.33283C6.55009 7.33283 5.55917 6.94655 4.82856 6.25896C4.09795 5.57138 3.6875 4.63881 3.6875 3.66642C3.6875 2.69402 4.09795 1.76145 4.82856 1.07387C5.55917 0.386282 6.55009 0 7.58333 0ZM17.5 13.3324C17.5002 14.1448 17.2751 14.9431 16.8469 15.6484C16.4188 16.3538 15.8023 16.9417 15.0587 17.3541C14.315 17.7664 13.4698 17.9889 12.6067 17.9996C11.7436 18.0103 10.8925 17.8087 10.1376 17.4148L8.16558 17.9788C8.08743 18.0012 8.00425 18.0033 7.92496 17.9846C7.84568 17.966 7.77326 17.9275 7.71548 17.8731C7.6577 17.8187 7.61672 17.7505 7.59693 17.6759C7.57715 17.6013 7.5793 17.523 7.60317 17.4495L8.20383 15.5949C7.83731 14.9719 7.62716 14.2782 7.58948 13.567C7.55181 12.8557 7.68761 12.1458 7.98648 11.4916C8.28535 10.8373 8.73937 10.2562 9.31375 9.79256C9.88813 9.32895 10.5676 8.99522 11.3002 8.81692C12.0328 8.63862 12.7991 8.62049 13.5402 8.76391C14.2814 8.90733 14.9779 9.20849 15.5763 9.64434C16.1747 10.0802 16.6592 10.6392 16.9927 11.2784C17.3261 11.9177 17.4996 12.6203 17.5 13.3324ZM11.125 11.3326C10.9371 11.3326 10.757 11.4028 10.6241 11.5278C10.4913 11.6528 10.4167 11.8224 10.4167 11.9992C10.4167 12.176 10.4913 12.3455 10.6241 12.4706C10.757 12.5956 10.9371 12.6658 11.125 12.6658H13.9583C14.1462 12.6658 14.3264 12.5956 14.4592 12.4706C14.592 12.3455 14.6667 12.176 14.6667 11.9992C14.6667 11.8224 14.592 11.6528 14.4592 11.5278C14.3264 11.4028 14.1462 11.3326 13.9583 11.3326H11.125ZM10.4167 14.6657C10.4167 14.8425 10.4913 15.012 10.6241 15.137C10.757 15.2621 10.9371 15.3323 11.125 15.3323H12.5417C12.7295 15.3323 12.9097 15.2621 13.0425 15.137C13.1754 15.012 13.25 14.8425 13.25 14.6657C13.25 14.4889 13.1754 14.3193 13.0425 14.1943C12.9097 14.0693 12.7295 13.999 12.5417 13.999H11.125C10.9371 13.999 10.757 14.0693 10.6241 14.1943C10.4913 14.3193 10.4167 14.4889 10.4167 14.6657Z" fill="#2B2B2B"/>
</svg>
