<svg width="25" height="25" viewBox="0 0 25 25" fill="none" xmlns="http://www.w3.org/2000/svg">
<mask id="mask0_2950_9719" style="mask-type:alpha" maskUnits="userSpaceOnUse" x="3" y="2" width="19" height="21">
<path fill-rule="evenodd" clip-rule="evenodd" d="M18.6665 4.5H19.6665C20.7665 4.5 21.6665 5.4 21.6665 6.5V20.5C21.6665 21.6 20.7665 22.5 19.6665 22.5H5.6665C4.5565 22.5 3.6665 21.6 3.6665 20.5V6.5C3.6665 5.4 4.5565 4.5 5.6665 4.5H6.6665V3.5C6.6665 2.95 7.1165 2.5 7.6665 2.5C8.2165 2.5 8.6665 2.95 8.6665 3.5V4.5H16.6665V3.5C16.6665 2.95 17.1165 2.5 17.6665 2.5C18.2165 2.5 18.6665 2.95 18.6665 3.5V4.5ZM8.6665 11.5H16.6665C17.2165 11.5 17.6665 11.95 17.6665 12.5C17.6665 13.05 17.2165 13.5 16.6665 13.5H8.6665C8.1165 13.5 7.6665 13.05 7.6665 12.5C7.6665 11.95 8.1165 11.5 8.6665 11.5ZM18.6665 20.5H6.6665C6.1165 20.5 5.6665 20.05 5.6665 19.5V9.5H19.6665V19.5C19.6665 20.05 19.2165 20.5 18.6665 20.5ZM8.6665 15.5H13.6665C14.2165 15.5 14.6665 15.95 14.6665 16.5C14.6665 17.05 14.2165 17.5 13.6665 17.5H8.6665C8.1165 17.5 7.6665 17.05 7.6665 16.5C7.6665 15.95 8.1165 15.5 8.6665 15.5Z" fill="black"/>
</mask>
<g mask="url(#mask0_2950_9719)">
<rect x="0.666504" y="0.5" width="24" height="24" fill="url(#paint0_linear_2950_9719)"/>
</g>
<defs>
<linearGradient id="paint0_linear_2950_9719" x1="24.6665" y1="24.5583" x2="0.666504" y2="0.558302" gradientUnits="userSpaceOnUse">
<stop stop-color="#2972FE"/>
<stop offset="1" stop-color="#6499FF"/>
</linearGradient>
</defs>
</svg>
