<svg width="18" height="17" viewBox="0 0 18 17" fill="none" xmlns="http://www.w3.org/2000/svg">
<path d="M7.94499 8.09898e-08C9.75271 -0.000254644 11.4988 0.60036 12.8573 1.68975C14.2158 2.77913 15.0939 4.28285 15.3278 5.92025L17.4215 8.9284C17.5592 9.12645 17.5313 9.4214 17.2121 9.5472L15.3892 10.2595V12.75C15.3892 13.2009 15.1932 13.6333 14.8441 13.9521C14.4951 14.2709 14.0218 14.45 13.5282 14.45H11.668L11.6671 17H3.29234V13.8601C3.29234 12.8571 2.88663 11.9077 2.13383 11.0509C1.257 10.0508 0.707309 8.84479 0.548108 7.5718C0.388908 6.29881 0.62667 5.01063 1.234 3.8557C1.84133 2.70076 2.79352 1.72606 3.98085 1.0439C5.16817 0.361735 6.54233 -0.000128495 7.94499 8.09898e-08ZM7.45181 4.89855C7.14475 4.62753 6.73343 4.47752 6.30646 4.48083C5.87949 4.48414 5.47103 4.64051 5.16904 4.91625C4.86706 5.19199 4.69572 5.56504 4.69192 5.95506C4.68813 6.34507 4.85218 6.72085 5.14875 7.00145L7.94499 9.55655L10.7412 7.00145C10.8967 6.8642 11.0208 6.70004 11.1061 6.51855C11.1914 6.33705 11.2362 6.14185 11.2381 5.94434C11.2399 5.74683 11.1987 5.55097 11.1167 5.36818C11.0348 5.18538 10.9139 5.01932 10.7609 4.87969C10.608 4.74005 10.4262 4.62963 10.226 4.55487C10.0259 4.48012 9.81145 4.44252 9.59523 4.44428C9.37901 4.44603 9.16533 4.48711 8.96668 4.5651C8.76802 4.6431 8.58836 4.75645 8.43817 4.89855L7.94499 5.34905L7.45181 4.89855Z" fill="#2B2B2B"/>
</svg>
