<svg width="24" height="24" viewBox="0 0 24 24" fill="none" xmlns="http://www.w3.org/2000/svg">
<path d="M11.9062 14.6251C12.6023 14.6251 13.27 14.3485 13.7623 13.8562C14.2546 13.364 14.5312 12.6963 14.5312 12.0001C14.5312 11.9232 14.5276 11.847 14.5211 11.7718L11.6779 14.615C11.7531 14.6216 11.829 14.6251 11.9062 14.6251ZM20.5949 3.88038L19.5937 2.88007C19.5585 2.84493 19.5108 2.8252 19.4611 2.8252C19.4114 2.8252 19.3637 2.84493 19.3286 2.88007L16.7664 5.44296C15.353 4.72062 13.7641 4.35945 11.9999 4.35945C7.49521 4.35945 4.13427 6.70554 1.91708 11.3977C1.82796 11.5864 1.78174 11.7926 1.78174 12.0012C1.78174 12.2099 1.82796 12.4161 1.91708 12.6048C2.80302 14.4709 3.86982 15.9666 5.11747 17.0919L2.63802 19.5704C2.60288 19.6056 2.58314 19.6532 2.58314 19.7029C2.58314 19.7526 2.60288 19.8003 2.63802 19.8355L3.63857 20.836C3.67372 20.8712 3.7214 20.8909 3.7711 20.8909C3.82081 20.8909 3.86848 20.8712 3.90364 20.836L20.5949 4.1457C20.6123 4.12828 20.6262 4.1076 20.6356 4.08484C20.645 4.06208 20.6499 4.03768 20.6499 4.01304C20.6499 3.9884 20.645 3.964 20.6356 3.94124C20.6262 3.91848 20.6123 3.8978 20.5949 3.88038ZM7.78115 12.0001C7.78108 11.2876 7.96556 10.5872 8.31662 9.96724C8.66768 9.34724 9.17333 8.82874 9.78434 8.46225C10.3953 8.09576 11.0909 7.89378 11.8031 7.87599C12.5154 7.85819 13.2201 8.02518 13.8487 8.3607L12.7091 9.50023C12.2496 9.35308 11.7583 9.33536 11.2894 9.44901C10.8204 9.56266 10.3918 9.80329 10.0506 10.1445C9.70937 10.4857 9.46874 10.9143 9.35508 11.3833C9.24143 11.8523 9.25915 12.3435 9.40631 12.803L8.26677 13.9426C7.94699 13.3451 7.78015 12.6777 7.78115 12.0001Z" fill="#858C94"/>
<path d="M22.0828 11.3954C21.2578 9.65792 20.2759 8.24112 19.1369 7.14502L15.7587 10.5235C16.0434 11.268 16.1066 12.0789 15.9404 12.8584C15.7742 13.6379 15.3859 14.3526 14.8223 14.9162C14.2588 15.4798 13.544 15.8681 12.7645 16.0343C11.985 16.2004 11.1741 16.1373 10.4297 15.8525L7.56421 18.718C8.89358 19.3332 10.3722 19.6408 12 19.6408C16.5047 19.6408 19.8656 17.2947 22.0828 12.6025C22.1719 12.4137 22.2182 12.2076 22.2182 11.9989C22.2182 11.7902 22.1719 11.5841 22.0828 11.3954Z" fill="#858C94"/>
</svg>
