<svg width="75" height="73" viewBox="0 0 75 73" fill="none" xmlns="http://www.w3.org/2000/svg">
<circle cx="38.5" cy="36.5" r="28.5" fill="url(#paint0_linear_2843_72804)"/>
<circle cx="72" cy="11" r="3" fill="#FF1843" fill-opacity="0.7"/>
<circle cx="8" cy="4" r="4" fill="#FF1843" fill-opacity="0.7"/>
<circle cx="4" cy="54" r="2" fill="#FF1843" fill-opacity="0.7"/>
<circle cx="67" cy="65" r="1" fill="#FF1843" fill-opacity="0.7"/>
<mask id="mask0_2843_72804" style="mask-type:alpha" maskUnits="userSpaceOnUse" x="28" y="27" width="20" height="20">
<path fill-rule="evenodd" clip-rule="evenodd" d="M33.1702 28.8808L30.1003 31.4408C29.6803 31.7908 29.0502 31.7408 28.7002 31.3108C28.3402 30.8908 28.4002 30.2608 28.8202 29.9008L31.9002 27.3408C32.3203 26.9908 32.9503 27.0408 33.3003 27.4708C33.6603 27.8908 33.6002 28.5208 33.1702 28.8808ZM47.1803 29.9008L44.1003 27.3408C43.6803 26.9908 43.0503 27.0408 42.6902 27.4708C42.3403 27.8908 42.4002 28.5208 42.8202 28.8808L45.8902 31.4408C46.3102 31.7908 46.9403 31.7408 47.3003 31.3108C47.6602 30.8908 47.6003 30.2608 47.1803 29.9008ZM41.8702 40.1408L38.5002 38.1408V33.6108C38.5002 33.2108 38.1803 32.8908 37.7802 32.8908H37.7203C37.3202 32.8908 37.0002 33.2108 37.0002 33.6108V38.3308C37.0002 38.6808 37.1803 39.0108 37.4902 39.1908L41.1402 41.3808C41.4802 41.5808 41.9202 41.4808 42.1202 41.1408C42.3302 40.7908 42.2203 40.3408 41.8702 40.1408ZM38.0002 28.8908C33.0303 28.8908 29.0002 32.9208 29.0002 37.8908C29.0002 42.8608 33.0303 46.8908 38.0002 46.8908C42.9703 46.8908 47.0002 42.8608 47.0002 37.8908C47.0002 32.9208 42.9703 28.8908 38.0002 28.8908ZM31.0002 37.8908C31.0002 41.7508 34.1403 44.8908 38.0002 44.8908C41.8602 44.8908 45.0002 41.7508 45.0002 37.8908C45.0002 34.0308 41.8602 30.8908 38.0002 30.8908C34.1403 30.8908 31.0002 34.0308 31.0002 37.8908Z" fill="black"/>
</mask>
<g mask="url(#mask0_2843_72804)">
<rect x="26" y="25" width="24" height="24" fill="white"/>
</g>
<circle cx="43" cy="2" r="1" fill="#FF1843" fill-opacity="0.7"/>
<circle cx="25.5" cy="71.5" r="1.5" fill="#FF1843" fill-opacity="0.7"/>
<circle cx="49.5" cy="69.5" r="0.5" fill="#FF1843" fill-opacity="0.7"/>
<circle cx="69" cy="45" r="1" fill="#FF1843" fill-opacity="0.7"/>
<circle cx="0.5" cy="30.5" r="0.5" fill="#FF1843" fill-opacity="0.7"/>
<defs>
<linearGradient id="paint0_linear_2843_72804" x1="67" y1="65.1385" x2="10" y2="8.13847" gradientUnits="userSpaceOnUse">
<stop stop-color="#FF1843" stop-opacity="0.9"/>
<stop offset="1" stop-color="#FF5E7C" stop-opacity="0.9"/>
</linearGradient>
</defs>
</svg>
