<svg width="246" height="240" viewBox="0 0 246 240" fill="none" xmlns="http://www.w3.org/2000/svg">
<path d="M119.108 232.911C120.047 235.941 119.171 239.246 117.299 239.826C115.427 240.406 113.642 239.589 112.704 236.56C111.765 233.53 112.498 231.975 114.37 231.395C116.242 230.815 118.169 229.882 119.108 232.911Z" fill="#2972FE" fill-opacity="0.2"/>
<path d="M238.991 225.459C234.666 229.381 228.472 230.488 226.049 227.816C223.626 225.144 223.602 221.532 227.926 217.61C232.25 213.689 235.414 213.704 237.837 216.376C240.26 219.048 243.315 221.538 238.991 225.459Z" fill="#2972FE" fill-opacity="0.2"/>
<path d="M26.9577 219.507C20.9618 224.945 10.5524 224.472 5.22693 218.599C-0.0985939 212.727 -1.60008 206.1 4.39584 200.662C10.3918 195.225 15.9431 196.53 21.2686 202.403C26.5942 208.275 32.9536 214.07 26.9577 219.507Z" fill="#2972FE" fill-opacity="0.2"/>
<path d="M51.3425 129.347C52.2814 132.376 51.4052 135.681 49.5333 136.261C47.6614 136.841 45.8767 136.024 44.9377 132.995C43.9987 129.965 44.7323 128.41 46.6042 127.83C48.4761 127.25 50.4035 126.317 51.3425 129.347Z" fill="#2972FE" fill-opacity="0.2"/>
<rect x="71.2293" y="69.0367" width="101.031" height="101.031" rx="36.2248" fill="url(#paint0_linear_2846_72620)"/>
<mask id="mask0_2846_72620" style="mask-type:alpha" maskUnits="userSpaceOnUse" x="100" y="98" width="43" height="42">
<path fill-rule="evenodd" clip-rule="evenodd" d="M100.405 119.052C100.405 107.548 109.72 98.2121 121.224 98.2121C132.748 98.2121 142.084 107.548 142.084 119.052C142.084 130.555 132.748 139.891 121.224 139.891C109.72 139.891 100.405 130.555 100.405 119.052ZM113.951 110.716C112.224 110.716 110.825 112.116 110.825 113.842C110.825 115.568 112.224 116.968 113.951 116.968C115.677 116.968 117.077 115.568 117.077 113.842C117.077 112.116 115.677 110.716 113.951 110.716ZM128.538 110.716C126.812 110.716 125.412 112.116 125.412 113.842C125.412 115.568 126.812 116.968 128.538 116.968C130.265 116.968 131.664 115.568 131.664 113.842C131.664 112.116 130.265 110.716 128.538 110.716ZM121.244 135.723C112.033 135.723 104.572 128.263 104.572 119.052C104.572 109.84 112.033 102.38 121.244 102.38C130.455 102.38 137.916 109.84 137.916 119.052C137.916 128.263 130.455 135.723 121.244 135.723ZM111.554 128.596C113.68 125.241 117.285 123.22 121.245 123.22C125.204 123.22 128.809 125.22 130.956 128.596C131.414 129.326 131.185 130.285 130.456 130.743C130.185 130.889 129.914 130.972 129.622 130.972C129.101 130.972 128.58 130.722 128.288 130.243C126.746 127.784 124.12 126.325 121.245 126.325C118.369 126.325 115.743 127.784 114.201 130.243C113.742 130.972 112.784 131.201 112.054 130.743C111.325 130.285 111.096 129.326 111.554 128.596Z" fill="black"/>
</mask>
<g mask="url(#mask0_2846_72620)">
<rect x="96.2369" y="94.0443" width="50.0153" height="50.0153" fill="white"/>
</g>
<path d="M216.05 78.6934C215.396 70.4264 222.345 62.278 230.492 61.6331C238.639 60.9882 244.991 63.9176 245.645 72.1847C246.3 80.4517 241.735 84.1383 233.588 84.7832C225.44 85.4281 216.705 86.9605 216.05 78.6934Z" fill="#2972FE" fill-opacity="0.6"/>
<path d="M10.436 62.518C8.78577 64.2748 4.93201 62.1523 2.93434 60.1546C0.936674 58.1569 -1.59124 54.223 1.31977 51.312C4.23078 48.401 8.1273 52.4296 10.125 54.4273C12.1226 56.425 12.0862 60.7612 10.436 62.518Z" fill="#2972FE" fill-opacity="0.5"/>
<path d="M91.1725 27.6778C86.8481 31.5993 80.6541 32.7064 78.2311 30.0345C75.8082 27.3626 75.7836 23.7503 80.108 19.8288C84.4323 15.9073 87.5962 15.9225 90.0191 18.5944C92.4421 21.2662 95.4968 23.7563 91.1725 27.6778Z" fill="#2972FE" fill-opacity="0.2"/>
<path d="M167.795 1.88757C168.575 4.79669 166.631 8.1654 163.764 8.9336C160.897 9.70181 158.436 9.07502 157.656 6.1659C156.877 3.25678 158.263 1.63887 161.13 0.870659C163.997 0.102453 167.016 -1.02155 167.795 1.88757Z" fill="#2972FE" fill-opacity="0.1"/>
<defs>
<linearGradient id="paint0_linear_2846_72620" x1="172.282" y1="170.334" x2="71.251" y2="69.3032" gradientUnits="userSpaceOnUse">
<stop stop-color="#2972FE"/>
<stop offset="1" stop-color="#6499FF"/>
</linearGradient>
</defs>
</svg>
