<svg width="14" height="18" viewBox="0 0 14 18" fill="none" xmlns="http://www.w3.org/2000/svg">
<path d="M5.68752 9.50803H4.81252C4.08627 9.50803 3.50001 8.92178 3.50001 8.19553C3.50001 7.46927 4.08627 6.88302 4.81252 6.88302H5.68752V6.00802C5.68752 5.28176 6.27378 4.69551 7.00003 4.69551C7.72628 4.69551 8.31254 5.28176 8.31254 6.00802V6.88302H9.18754C9.91379 6.88302 10.5 7.46927 10.5 8.19553C10.5 8.92178 9.91379 9.50803 9.18754 9.50803H8.31254V10.383C8.31254 11.1093 7.72628 11.6955 7.00003 11.6955C6.27378 11.6955 5.68752 11.1093 5.68752 10.383V9.50803ZM6.38753 0.110493L1.1375 2.07925C0.455002 2.34175 0 2.98925 0 3.72426V7.83678C0 12.2555 2.98376 16.3768 7.00003 17.3831C11.0163 16.3768 14.0001 12.2555 14.0001 7.83678V3.72426C13.9994 3.36818 13.8902 3.02077 13.687 2.7284C13.4837 2.43604 13.1961 2.21263 12.8626 2.088L7.61253 0.119243C7.21878 -0.038258 6.78128 -0.038258 6.38753 0.110493Z" fill="white"/>
</svg>
