<svg width="28" height="40" viewBox="0 0 28 40" fill="none" xmlns="http://www.w3.org/2000/svg">
<path d="M27.9955 14.0042C27.9967 11.3208 27.2266 8.69361 25.777 6.43553C24.3273 4.17745 22.2591 2.38364 19.8187 1.26775C17.3784 0.151864 14.6687 -0.239071 12.0125 0.141508C9.35623 0.522087 6.86534 1.65814 4.8365 3.41436C2.80765 5.17058 1.32636 7.47294 0.569037 10.0472C-0.188282 12.6215 -0.189705 15.3593 0.564937 17.9343C1.31958 20.5094 2.79848 22.8133 4.8255 24.5716C6.85252 26.33 9.34222 27.4686 11.9981 27.8519V30.6682H7.33216C6.80181 30.6682 6.29318 30.8788 5.91817 31.2539C5.54316 31.6289 5.33248 32.1375 5.33248 32.6678C5.33248 33.1982 5.54316 33.7068 5.91817 34.0818C6.29318 34.4568 6.80181 34.6675 7.33216 34.6675H11.9981V38.0003C11.9981 38.5307 12.2088 39.0393 12.5838 39.4143C12.9588 39.7893 13.4674 40 13.9978 40C14.5281 40 15.0367 39.7893 15.4117 39.4143C15.7868 39.0393 15.9974 38.5307 15.9974 38.0003V34.6675H20.6634C21.1937 34.6675 21.7023 34.4568 22.0773 34.0818C22.4524 33.7068 22.663 33.1982 22.663 32.6678C22.663 32.1375 22.4524 31.6289 22.0773 31.2539C21.7023 30.8788 21.1937 30.6682 20.6634 30.6682H15.9974V27.8519C19.3278 27.3713 22.3736 25.707 24.577 23.1639C26.7804 20.6208 27.994 17.369 27.9955 14.0042ZM3.99936 14.0042C3.99936 12.0267 4.58575 10.0936 5.68439 8.44936C6.78303 6.80513 8.34457 5.52361 10.1715 4.76685C11.9985 4.0101 14.0088 3.8121 15.9483 4.19789C17.8878 4.58368 19.6694 5.53593 21.0677 6.93424C22.466 8.33254 23.4182 10.1141 23.804 12.0536C24.1898 13.9931 23.9918 16.0034 23.2351 17.8304C22.4783 19.6574 21.1968 21.2189 19.5526 22.3175C17.9083 23.4162 15.9753 24.0026 13.9978 24.0026C11.346 24.0026 8.80288 22.9492 6.92782 21.0741C5.05276 19.199 3.99936 16.6559 3.99936 14.0042Z" fill="white"/>
</svg>
