<svg width="48" height="41" viewBox="0 0 48 41" fill="none" xmlns="http://www.w3.org/2000/svg">
<rect y="0.5" width="48" height="40" rx="12" fill="#2972FE" fill-opacity="0.1"/>
<mask id="mask0_2950_10076" style="mask-type:alpha" maskUnits="userSpaceOnUse" x="14" y="12" width="20" height="17">
<path d="M21.9977 27.8274V24.8274C21.9977 23.7228 22.8931 22.8274 23.9977 22.8274C25.1022 22.8274 25.9977 23.7228 25.9977 24.8274V27.8274C25.9977 28.3774 26.4477 28.8274 26.9977 28.8274H29.9977C30.5477 28.8274 30.9977 28.3774 30.9977 27.8274V22.5274C30.9977 21.5885 31.7588 20.8274 32.6977 20.8274C33.1577 20.8274 33.3777 20.2574 33.0277 19.9574L24.6677 12.4274C24.2877 12.0874 23.7077 12.0874 23.3277 12.4274L14.9677 19.9574C14.6277 20.2574 14.8377 20.8274 15.2977 20.8274C16.2365 20.8274 16.9977 21.5885 16.9977 22.5274V27.8274C16.9977 28.3774 17.4477 28.8274 17.9977 28.8274H20.9977C21.5477 28.8274 21.9977 28.3774 21.9977 27.8274Z" fill="black"/>
</mask>
<g mask="url(#mask0_2950_10076)">
<rect x="12" y="8.5" width="24" height="24" fill="url(#paint0_linear_2950_10076)"/>
</g>
<defs>
<linearGradient id="paint0_linear_2950_10076" x1="36" y1="32.5583" x2="12" y2="8.5583" gradientUnits="userSpaceOnUse">
<stop stop-color="#2972FE"/>
<stop offset="1" stop-color="#6499FF"/>
</linearGradient>
</defs>
</svg>
