<svg width="22" height="18" viewBox="0 0 22 18" fill="none" xmlns="http://www.w3.org/2000/svg">
<path fill-rule="evenodd" clip-rule="evenodd" d="M7.8101 15.4881C4.71995 13.2331 0.5 9.50809 0.5 5.98611C0.5 0.10214 6.275 -2.09485 11 2.44913C15.725 -2.09485 21.5 0.10214 21.5 5.98611C21.5 9.50809 17.279 13.2331 14.1899 15.4881C12.7913 16.508 12.092 17.019 11 17.019C9.908 17.019 9.2087 16.509 7.8101 15.4881ZM15.725 3.26912C15.9339 3.26912 16.1342 3.34814 16.2818 3.48879C16.4295 3.62944 16.5125 3.82021 16.5125 4.01912V5.26911H17.825C18.0339 5.26911 18.2342 5.34813 18.3818 5.48878C18.5295 5.62943 18.6125 5.8202 18.6125 6.01911C18.6125 6.21802 18.5295 6.40878 18.3818 6.54943C18.2342 6.69008 18.0339 6.7691 17.825 6.7691H16.5125V8.01909C16.5125 8.21801 16.4295 8.40877 16.2818 8.54942C16.1342 8.69007 15.9339 8.76909 15.725 8.76909C15.5161 8.76909 15.3158 8.69007 15.1682 8.54942C15.0205 8.40877 14.9375 8.21801 14.9375 8.01909V6.7691H13.625C13.4161 6.7691 13.2158 6.69008 13.0682 6.54943C12.9205 6.40878 12.8375 6.21802 12.8375 6.01911C12.8375 5.8202 12.9205 5.62943 13.0682 5.48878C13.2158 5.34813 13.4161 5.26911 13.625 5.26911H14.9375V4.01912C14.9375 3.82021 15.0205 3.62944 15.1682 3.48879C15.3158 3.34814 15.5161 3.26912 15.725 3.26912Z" fill="#2B2B2B"/>
</svg>
