<svg width="24" height="25" viewBox="0 0 24 25" fill="none" xmlns="http://www.w3.org/2000/svg">
<mask id="mask0_2950_10652" style="mask-type:alpha" maskUnits="userSpaceOnUse" x="2" y="5" width="20" height="15">
<path fill-rule="evenodd" clip-rule="evenodd" d="M2.75 6.5C2.75 5.67 3.42 5 4.25 5C5.08 5 5.75 5.67 5.75 6.5C5.75 7.33 5.08 8 4.25 8C3.42 8 2.75 7.33 2.75 6.5ZM2.75 12.5C2.75 11.67 3.42 11 4.25 11C5.08 11 5.75 11.67 5.75 12.5C5.75 13.33 5.08 14 4.25 14C3.42 14 2.75 13.33 2.75 12.5ZM4.25 17C3.42 17 2.75 17.68 2.75 18.5C2.75 19.32 3.43 20 4.25 20C5.07 20 5.75 19.32 5.75 18.5C5.75 17.68 5.08 17 4.25 17ZM20.25 19.5H8.25C7.7 19.5 7.25 19.05 7.25 18.5C7.25 17.95 7.7 17.5 8.25 17.5H20.25C20.8 17.5 21.25 17.95 21.25 18.5C21.25 19.05 20.8 19.5 20.25 19.5ZM8.25 13.5H20.25C20.8 13.5 21.25 13.05 21.25 12.5C21.25 11.95 20.8 11.5 20.25 11.5H8.25C7.7 11.5 7.25 11.95 7.25 12.5C7.25 13.05 7.7 13.5 8.25 13.5ZM8.25 7.5C7.7 7.5 7.25 7.05 7.25 6.5C7.25 5.95 7.7 5.5 8.25 5.5H20.25C20.8 5.5 21.25 5.95 21.25 6.5C21.25 7.05 20.8 7.5 20.25 7.5H8.25Z" fill="black"/>
</mask>
<g mask="url(#mask0_2950_10652)">
<rect y="0.5" width="24" height="24" fill="url(#paint0_linear_2950_10652)"/>
</g>
<defs>
<linearGradient id="paint0_linear_2950_10652" x1="24" y1="24.5583" x2="0" y2="0.558302" gradientUnits="userSpaceOnUse">
<stop stop-color="#2972FE"/>
<stop offset="1" stop-color="#6499FF"/>
</linearGradient>
</defs>
</svg>
