<svg width="43" height="40" viewBox="0 0 43 40" fill="none" xmlns="http://www.w3.org/2000/svg">
<path fill-rule="evenodd" clip-rule="evenodd" d="M4.1011 24.0003C7.37303 28.9069 12.9116 34.3228 21.5007 40C30.0899 34.3228 35.6285 28.9069 38.9004 24.0003H32.1672C31.9009 24.0003 31.6408 23.9205 31.4202 23.7712C31.1997 23.622 31.0289 23.4102 30.9299 23.163L27.0446 13.4512L22.7834 28.3656C22.7072 28.633 22.5493 28.87 22.3317 29.0433C22.1142 29.2165 21.8479 29.3174 21.5701 29.3318C21.2924 29.3462 21.0171 29.2734 20.7828 29.1236C20.5485 28.9738 20.3669 28.7544 20.2634 28.4962L15.8715 17.5151L11.9436 23.4083C11.8217 23.5906 11.6566 23.74 11.4631 23.8433C11.2696 23.9466 11.0536 24.0005 10.8343 24.0003H4.1011ZM2.51179 21.3337C-6.30136 4.48072 11.9276 -5.33242 21.0314 3.04875C21.1914 3.19541 21.3487 3.34741 21.5007 3.50474C21.6512 3.34755 21.8078 3.19633 21.9701 3.05141C31.0739 -5.33242 49.3028 4.48072 40.487 21.3337H33.0658L28.0686 8.83796C27.9652 8.5798 27.7836 8.36044 27.5493 8.21061C27.315 8.06077 27.0397 7.98796 26.7619 8.00236C26.4842 8.01676 26.2179 8.11766 26.0003 8.29093C25.7828 8.46419 25.6249 8.70115 25.5487 8.96863L21.2901 23.883L17.4048 14.1712C17.3143 13.9459 17.1641 13.7496 16.9702 13.6034C16.7763 13.4573 16.5462 13.3669 16.3047 13.3419C16.0632 13.3169 15.8195 13.3583 15.5998 13.4617C15.3802 13.5651 15.1929 13.7265 15.0582 13.9285L10.1196 21.3337H2.51446H2.51179Z" fill="white"/>
</svg>
