<svg width="45" height="40" viewBox="0 0 45 40" fill="none" xmlns="http://www.w3.org/2000/svg">
<path fill-rule="evenodd" clip-rule="evenodd" d="M23.8175 0.716135C23.8831 0.861708 23.9193 1.01878 23.9241 1.17838C23.929 1.33797 23.9023 1.49695 23.8457 1.64624C23.789 1.79552 23.7035 1.93217 23.594 2.04838C23.4845 2.16459 23.3532 2.25808 23.2076 2.3235C22.1434 2.80257 21.2398 3.57796 20.6046 4.55697C19.9695 5.53598 19.6297 6.6772 19.6259 7.84419V7.88672C19.6338 9.43761 20.2345 10.9268 21.305 12.049C22.3755 13.1712 23.8347 13.8415 25.3835 13.9224C26.9323 14.0033 28.4534 13.4888 29.6351 12.4843C30.8167 11.4798 31.5694 10.0613 31.7389 8.5197C31.7732 8.19909 31.9335 7.90524 32.1844 7.7028C32.4354 7.50036 32.7565 7.40591 33.0771 7.44023C33.3978 7.47454 33.6916 7.63482 33.894 7.88579C34.0965 8.13676 34.1909 8.45787 34.1566 8.77848C33.9696 10.5265 33.2436 12.1731 32.0791 13.49C33.8713 13.8949 35.4842 14.8693 36.6764 16.2674C36.7801 16.3887 36.8589 16.5293 36.9083 16.6811C36.9577 16.8329 36.9767 16.9929 36.9642 17.152C36.9517 17.3112 36.908 17.4663 36.8356 17.6085C36.7632 17.7508 36.6635 17.8773 36.5421 17.9811C36.4208 18.0848 36.2802 18.1636 36.1285 18.2129C35.9767 18.2623 35.8166 18.2813 35.6575 18.2688C35.4984 18.2564 35.3433 18.2127 35.201 18.1403C35.0588 18.0679 34.9322 17.9681 34.8285 17.8468C33.8228 16.6638 32.4024 15.9108 30.8589 15.7424C29.3154 15.574 27.766 16.003 26.5289 16.9413C25.2918 17.8797 24.461 19.2561 24.2071 20.7878C23.9532 22.3196 24.2955 23.8905 25.1636 25.1778L25.1721 25.1875C25.3051 25.3605 25.389 25.5661 25.4151 25.7828C25.8197 25.8338 26.206 26.0294 26.494 26.3611C26.771 26.6819 27.0225 27.0087 27.2497 27.3416C27.6907 27.9855 27.6324 28.8214 27.1634 29.396C27.527 29.3887 27.8835 29.497 28.1815 29.7053C28.4796 29.9136 28.7038 30.2112 28.8218 30.5551C29.0769 31.2998 29.2738 32.0276 29.4414 32.6885C29.5203 32.9969 29.5119 33.3211 29.417 33.6249C29.3222 33.9287 29.1447 34.2002 28.9044 34.4089C29.4791 34.4915 29.9979 34.8621 30.2421 35.4343C30.4668 35.9604 30.6819 36.2167 30.8811 36.3576C31.2019 36.5836 31.4206 36.8995 31.5287 37.247C31.7996 36.8898 32.2103 36.6395 32.6914 36.5812C32.9514 36.5496 33.2418 36.501 33.5649 36.4305C34.0582 36.3224 34.5478 36.439 34.9281 36.7112C35.0607 36.5216 35.245 36.374 35.459 36.286L35.7919 36.1462C36.0971 36.0018 36.37 35.7971 36.594 35.5445C36.8181 35.2918 36.9887 34.9965 37.0956 34.6762C37.3373 33.9472 37.3167 32.8902 36.6193 31.538C36.5426 31.3959 36.495 31.24 36.4793 31.0793C36.4635 30.9186 36.48 30.7564 36.5276 30.6022C36.5753 30.4479 36.6532 30.3047 36.7569 30.1809C36.8605 30.0571 36.9878 29.9552 37.1313 29.8812C37.2747 29.8072 37.4315 29.7625 37.5925 29.7497C37.7534 29.737 37.9153 29.7564 38.0686 29.8069C38.222 29.8575 38.3637 29.938 38.4855 30.044C38.6074 30.1499 38.7069 30.2791 38.7782 30.4239C39.2739 31.3837 39.557 32.3265 39.6409 33.2207C40.3795 32.3411 41.162 31.1528 41.7998 29.5856C41.86 29.4377 41.9488 29.3032 42.061 29.1897C42.1732 29.0762 42.3067 28.9859 42.4538 28.924C42.6009 28.862 42.7588 28.8297 42.9184 28.8287C43.078 28.8278 43.2363 28.8583 43.3841 28.9186C43.5319 28.9788 43.6664 29.0676 43.7799 29.1798C43.8935 29.292 43.9838 29.4255 44.0457 29.5726C44.1076 29.7197 44.14 29.8776 44.1409 30.0372C44.1418 30.1968 44.1113 30.355 44.0511 30.5028C43.2905 32.3678 42.3453 33.7953 41.4353 34.8608C42.027 34.9301 42.6503 35.0759 43.3233 35.3104C43.6278 35.4159 43.8779 35.6381 44.0186 35.928C44.1593 36.2179 44.1791 36.5519 44.0736 36.8564C43.968 37.1609 43.7459 37.411 43.4559 37.5517C43.166 37.6924 42.8321 37.7121 42.5276 37.6066C41.3187 37.1862 40.4597 37.1692 39.6226 37.3442C38.8426 37.5058 38.076 37.8253 37.0056 38.2736L36.7785 38.3684C36.6382 38.4337 36.4951 38.4929 36.3496 38.5458C36.1031 38.6385 35.8331 38.6483 35.5805 38.5737C35.4141 39.1629 34.9354 39.6428 34.2951 39.7826C33.8796 39.8737 33.4811 39.9417 33.0996 39.9879C32.7018 40.0354 32.2998 39.9422 31.9635 39.7246C31.6271 39.5069 31.3774 39.1784 31.2578 38.796C30.9889 39.1506 30.5927 39.3869 30.153 39.4549C29.7132 39.5229 29.2642 39.4173 28.9008 39.1605C27.9932 38.519 27.4514 37.6358 27.0869 36.7829C26.944 36.4488 26.9108 36.0781 26.992 35.724C27.0732 35.3699 27.2647 35.0506 27.5388 34.8122C27.2025 34.7645 26.8879 34.618 26.6349 34.3913C26.3818 34.1647 26.2017 33.868 26.1173 33.539C25.9622 32.9083 25.7819 32.2842 25.5767 31.668C25.482 31.392 25.4592 31.0964 25.5107 30.8091C25.5621 30.5219 25.6861 30.2525 25.8707 30.0266C25.3118 30.0375 24.7578 29.7751 24.4189 29.2794C24.2588 29.0458 24.0856 28.8215 23.9001 28.6075C23.7074 28.3853 23.5751 28.1173 23.516 27.8292C23.4568 27.5411 23.4728 27.2427 23.5623 26.9625C23.4233 26.8754 23.3034 26.7609 23.21 26.626L23.1978 26.6053C22.6301 25.8778 21.9038 25.2895 21.0742 24.8853C20.2447 24.481 19.3338 24.2715 18.411 24.2726C16.4671 24.2726 14.737 25.1838 13.6241 26.6053C13.5417 26.7249 13.4562 26.8424 13.3678 26.9576C12.6927 27.9591 12.3331 29.1397 12.3351 30.3473C12.3351 31.5052 12.6582 32.5828 13.2183 33.5025C13.3794 33.7775 13.4261 34.1047 13.3482 34.4137C13.2703 34.7227 13.0742 34.9888 12.802 35.1545C12.5298 35.3203 12.2034 35.3724 11.8931 35.2998C11.5828 35.2271 11.3135 35.0354 11.1432 34.7661C10.2024 33.2232 9.77963 31.4199 9.93676 29.6196C8.34376 30.293 6.5838 30.4667 4.88989 30.1177C4.57428 30.0528 4.29738 29.8651 4.12012 29.5961C3.94285 29.327 3.87974 28.9985 3.94467 28.6829C4.0096 28.3672 4.19725 28.0904 4.46633 27.9131C4.73542 27.7358 5.0639 27.6727 5.37952 27.7376C6.489 27.969 7.64112 27.8849 8.70519 27.4947C9.76925 27.1045 10.7027 26.4239 11.3995 25.5301C11.4834 25.4098 11.5684 25.292 11.6571 25.1778C12.5142 23.9037 12.8571 22.3524 12.6167 20.8358C12.3762 19.3192 11.5704 17.9499 10.3613 17.0035C9.15216 16.057 7.62946 15.6035 6.09952 15.7343C4.56958 15.865 3.14593 16.5703 2.11497 17.7083C1.89827 17.9469 1.59567 18.0897 1.27372 18.1052C0.951777 18.1206 0.636863 18.0076 0.398257 17.7909C0.159651 17.5742 0.0168998 17.2716 0.00140626 16.9497C-0.0140872 16.6277 0.0989462 16.3128 0.315641 16.0742C1.49028 14.7777 3.03636 13.8753 4.74289 13.49C3.61547 12.2153 2.89789 10.6307 2.68356 8.9425C2.6478 8.62516 2.73843 8.30649 2.93583 8.05545C3.13324 7.80442 3.42154 7.6412 3.73837 7.60112C4.0552 7.56104 4.37507 7.64731 4.62877 7.84128C4.88248 8.03524 5.04961 8.3213 5.094 8.63755C5.29303 10.165 6.0648 11.5599 7.25318 12.54C8.44156 13.52 9.95784 14.0121 11.4953 13.9168C13.0327 13.8214 14.4765 13.1456 15.5346 12.0261C16.5927 10.9066 17.1861 9.42708 17.1948 7.88672V7.84419C17.1912 6.69633 16.8624 5.57299 16.2466 4.60431C15.6308 3.63563 14.7531 2.86125 13.7152 2.37088C13.571 2.3026 13.4416 2.20657 13.3345 2.08829C13.2274 1.97 13.1446 1.83178 13.0909 1.68151C13.0372 1.53123 13.0136 1.37185 13.0215 1.21247C13.0294 1.05308 13.0686 0.896814 13.1369 0.752583C13.2052 0.608351 13.3012 0.478982 13.4195 0.371862C13.5378 0.264741 13.676 0.181967 13.8263 0.128266C13.9766 0.0745646 14.1359 0.0509877 14.2953 0.0588813C14.4547 0.0667749 14.611 0.105984 14.7552 0.174271C16.2725 0.893684 17.5441 2.0444 18.411 3.48256C19.3055 1.99807 20.6306 0.820898 22.2101 0.107449C22.3556 0.0418205 22.5126 0.00550508 22.6721 0.000578812C22.8317 -0.00434745 22.9906 0.0222114 23.1399 0.0787384C23.2892 0.135265 23.4258 0.220652 23.5421 0.33002C23.6584 0.439387 23.7519 0.570591 23.8175 0.716135ZM18.411 20.0179C18.6542 20.0242 18.8962 19.9817 19.1227 19.893C19.3492 19.8042 19.5557 19.6711 19.7299 19.5013C19.9042 19.3315 20.0426 19.1285 20.1372 18.9044C20.2317 18.6802 20.2804 18.4394 20.2804 18.1961C20.2804 17.9528 20.2317 17.712 20.1372 17.4878C20.0426 17.2637 19.9042 17.0607 19.7299 16.8909C19.5557 16.7211 19.3492 16.588 19.1227 16.4992C18.8962 16.4105 18.6542 16.368 18.411 16.3743C17.9276 16.3743 17.4641 16.5663 17.1223 16.9081C16.7806 17.2498 16.5886 17.7134 16.5886 18.1967C16.5886 18.68 16.7806 19.1436 17.1223 19.4853C17.4641 19.8271 17.9276 20.0191 18.411 20.0191V20.0179Z" fill="white"/>
</svg>
