<svg width="41" height="40" viewBox="0 0 41 40" fill="none" xmlns="http://www.w3.org/2000/svg">
<path d="M2.59817 31.1914C3.46223 33.8556 6.0884 35.5557 8.89059 35.5557H9.00059C9.25767 36.8104 9.94003 37.9379 10.9324 38.7477C11.9247 39.5575 13.1662 39.9998 14.447 40C15.361 40 16.2151 39.77 16.9711 39.374C17.2866 39.201 17.5492 38.9454 17.7306 38.6347C17.9121 38.3239 18.0056 37.9697 18.0012 37.6098V2.0515C18.0052 1.59327 17.8513 1.14763 17.5654 0.789547C17.2794 0.431466 16.8789 0.182796 16.4311 0.0853726C15.4276 -0.109529 14.3879 0.0317704 13.4729 0.487399C11.9848 1.19945 11.1127 2.78955 11.1127 4.44366V4.55367C9.99908 4.32637 8.84251 4.44607 7.79902 4.89663C6.75553 5.34719 5.87531 6.10692 5.27709 7.07336C4.67887 8.0398 4.39142 9.16646 4.45352 10.3014C4.51562 11.4363 4.92427 12.5248 5.62437 13.4203C4.05643 13.6659 2.62793 14.4639 1.59659 15.6702C0.56525 16.8764 -0.00100093 18.4116 1.32821e-06 19.9987C1.32821e-06 22.3548 1.22208 24.421 3.0662 25.6231C2.20615 27.1652 1.92413 29.1153 2.59817 31.1914ZM34.3783 13.4203C35.0784 12.5248 35.487 11.4363 35.5491 10.3014C35.6112 9.16646 35.3238 8.0398 34.7255 7.07336C34.1273 6.10692 33.2471 5.34719 32.2036 4.89663C31.1601 4.44607 30.0036 4.32637 28.8899 4.55367V4.44366C28.8899 2.79155 28.0158 1.19945 26.5277 0.487399C25.6135 0.0316349 24.5743 -0.109681 23.5716 0.0853726C23.124 0.18314 22.7236 0.431902 22.4377 0.789907C22.1518 1.14791 21.9978 1.59337 22.0014 2.0515V37.6078C22.0014 38.3379 22.3855 39.0319 23.0335 39.372C23.7896 39.77 24.6416 40 25.5557 40C26.8368 39.9997 28.0784 39.5571 29.0708 38.7469C30.0632 37.9368 30.7454 36.8088 31.002 35.5537H31.114C33.9142 35.5537 36.5424 33.8536 37.4065 31.1894C38.0805 29.1133 37.7985 27.1632 36.9384 25.6211C37.8778 25.0141 38.6504 24.1816 39.1856 23.1996C39.7208 22.2175 40.0017 21.1171 40.0026 19.9987C40.0036 18.4116 39.4374 16.8764 38.406 15.6702C37.3747 14.4639 35.9462 13.6659 34.3783 13.4203Z" fill="white"/>
</svg>
