<svg width="196" height="191" viewBox="0 0 196 191" fill="none" xmlns="http://www.w3.org/2000/svg">
<path d="M94.7901 185.359C95.5374 187.77 94.8401 190.4 93.3503 190.862C91.8606 191.323 90.4402 190.673 89.693 188.262C88.9457 185.851 89.5295 184.614 91.0192 184.152C92.509 183.69 94.0429 182.948 94.7901 185.359Z" fill="#FF1843" fill-opacity="0.2"/>
<path d="M190.196 179.428C186.755 182.549 181.825 183.43 179.897 181.304C177.969 179.177 177.949 176.303 181.391 173.182C184.832 170.061 187.35 170.073 189.279 172.199C191.207 174.326 193.638 176.307 190.196 179.428Z" fill="#FF1843" fill-opacity="0.2"/>
<path d="M21.4533 174.691C16.6815 179.019 8.39746 178.642 4.15923 173.969C-0.0790014 169.295 -1.27394 164.021 3.49783 159.694C8.26959 155.367 12.6875 156.405 16.9258 161.079C21.164 165.752 26.2251 170.364 21.4533 174.691Z" fill="#FF1843" fill-opacity="0.2"/>
<path d="M40.8601 102.938C41.6074 105.349 40.9101 107.979 39.4203 108.441C37.9306 108.903 36.5103 108.253 35.763 105.842C35.0158 103.43 35.5995 102.193 37.0893 101.731C38.579 101.27 40.1129 100.527 40.8601 102.938Z" fill="#FF1843" fill-opacity="0.2"/>
<rect x="56.4378" y="55.4891" width="80.1049" height="80.1049" rx="28.8" fill="url(#paint0_linear_2844_85614)"/>
<mask id="mask0_2844_85614" style="mask-type:alpha" maskUnits="userSpaceOnUse" x="79" y="78" width="35" height="35">
<path fill-rule="evenodd" clip-rule="evenodd" d="M83.1394 78.8532H109.841C111.677 78.8532 113.179 80.3552 113.179 82.1909V102.217C113.179 104.053 111.677 105.555 109.841 105.555H86.4771L79.8017 112.23L79.8184 82.1909C79.8184 80.3552 81.3037 78.8532 83.1394 78.8532ZM104.834 90.5352H88.146C87.2281 90.5352 86.4771 91.2862 86.4771 92.204C86.4771 93.1219 87.2281 93.8729 88.146 93.8729H104.834C105.752 93.8729 106.503 93.1219 106.503 92.204C106.503 91.2862 105.752 90.5352 104.834 90.5352ZM98.1591 98.8794H88.146C87.2281 98.8794 86.4771 98.1284 86.4771 97.2106C86.4771 96.2927 87.2281 95.5417 88.146 95.5417H98.1591C99.0769 95.5417 99.8279 96.2927 99.8279 97.2106C99.8279 98.1284 99.0769 98.8794 98.1591 98.8794ZM88.146 88.8663H104.834C105.752 88.8663 106.503 88.1153 106.503 87.1975C106.503 86.2796 105.752 85.5286 104.834 85.5286H88.146C87.2281 85.5286 86.4771 86.2796 86.4771 87.1975C86.4771 88.1153 87.2281 88.8663 88.146 88.8663Z" fill="black"/>
</mask>
<g mask="url(#mask0_2844_85614)">
<rect x="76.464" y="75.5153" width="40.0524" height="40.0524" fill="white"/>
</g>
<path d="M171.94 62.6266C171.419 56.0474 176.949 49.5627 183.433 49.0494C189.917 48.5362 194.972 50.8675 195.493 57.4467C196.013 64.026 192.381 66.9599 185.897 67.4731C179.413 67.9863 172.461 69.2059 171.94 62.6266Z" fill="#FF1843" fill-opacity="0.6"/>
<path d="M8.30526 49.7538C6.99195 51.1519 3.92499 49.4627 2.33518 47.8729C0.745371 46.2831 -1.26642 43.1524 1.05025 40.8357C3.36693 38.519 6.46791 41.7251 8.05773 43.3149C9.64754 44.9048 9.61857 48.3556 8.30526 49.7538Z" fill="#FF1843" fill-opacity="0.5"/>
<path d="M72.5581 22.0269C69.1166 25.1477 64.1872 26.0288 62.2589 23.9024C60.3307 21.776 60.3112 18.9012 63.7526 15.7804C67.1941 12.6595 69.7119 12.6716 71.6402 14.798C73.5685 16.9243 75.9996 18.906 72.5581 22.0269Z" fill="#FF1843" fill-opacity="0.2"/>
<path d="M133.537 1.50229C134.158 3.81747 132.611 6.4984 130.329 7.10976C128.048 7.72113 126.089 7.2223 125.468 4.90713C124.848 2.59195 125.952 1.30436 128.233 0.692999C130.515 0.0816338 132.917 -0.812887 133.537 1.50229Z" fill="#FF1843" fill-opacity="0.1"/>
<defs>
<linearGradient id="paint0_linear_2844_85614" x1="136.617" y1="135.861" x2="56.5118" y2="55.7565" gradientUnits="userSpaceOnUse">
<stop stop-color="#FF1843" stop-opacity="0.9"/>
<stop offset="1" stop-color="#FF5E7C" stop-opacity="0.9"/>
</linearGradient>
</defs>
</svg>
