<svg width="49" height="41" viewBox="0 0 49 41" fill="none" xmlns="http://www.w3.org/2000/svg">
<rect x="0.666504" y="0.5" width="48" height="40" rx="12" fill="#2972FE" fill-opacity="0.1"/>
<mask id="mask0_2950_13179" style="mask-type:alpha" maskUnits="userSpaceOnUse" x="15" y="13" width="19" height="15">
<path fill-rule="evenodd" clip-rule="evenodd" d="M15.4165 14.5C15.4165 13.67 16.0865 13 16.9165 13C17.7465 13 18.4165 13.67 18.4165 14.5C18.4165 15.33 17.7465 16 16.9165 16C16.0865 16 15.4165 15.33 15.4165 14.5ZM15.4165 20.5C15.4165 19.67 16.0865 19 16.9165 19C17.7465 19 18.4165 19.67 18.4165 20.5C18.4165 21.33 17.7465 22 16.9165 22C16.0865 22 15.4165 21.33 15.4165 20.5ZM16.9165 25C16.0865 25 15.4165 25.68 15.4165 26.5C15.4165 27.32 16.0965 28 16.9165 28C17.7365 28 18.4165 27.32 18.4165 26.5C18.4165 25.68 17.7465 25 16.9165 25ZM32.9165 27.5H20.9165C20.3665 27.5 19.9165 27.05 19.9165 26.5C19.9165 25.95 20.3665 25.5 20.9165 25.5H32.9165C33.4665 25.5 33.9165 25.95 33.9165 26.5C33.9165 27.05 33.4665 27.5 32.9165 27.5ZM20.9165 21.5H32.9165C33.4665 21.5 33.9165 21.05 33.9165 20.5C33.9165 19.95 33.4665 19.5 32.9165 19.5H20.9165C20.3665 19.5 19.9165 19.95 19.9165 20.5C19.9165 21.05 20.3665 21.5 20.9165 21.5ZM20.9165 15.5C20.3665 15.5 19.9165 15.05 19.9165 14.5C19.9165 13.95 20.3665 13.5 20.9165 13.5H32.9165C33.4665 13.5 33.9165 13.95 33.9165 14.5C33.9165 15.05 33.4665 15.5 32.9165 15.5H20.9165Z" fill="black"/>
</mask>
<g mask="url(#mask0_2950_13179)">
<rect x="12.6665" y="8.5" width="24" height="24" fill="url(#paint0_linear_2950_13179)"/>
</g>
<defs>
<linearGradient id="paint0_linear_2950_13179" x1="36.6665" y1="32.5583" x2="12.6665" y2="8.5583" gradientUnits="userSpaceOnUse">
<stop stop-color="#2972FE"/>
<stop offset="1" stop-color="#6499FF"/>
</linearGradient>
</defs>
</svg>
