<svg width="24" height="25" viewBox="0 0 24 25" fill="none" xmlns="http://www.w3.org/2000/svg">
<mask id="mask0_2950_10664" style="mask-type:alpha" maskUnits="userSpaceOnUse" x="4" y="4" width="16" height="17">
<path fill-rule="evenodd" clip-rule="evenodd" d="M16 8.5C16 10.71 14.21 12.5 12 12.5C9.79 12.5 8 10.71 8 8.5C8 6.29 9.79 4.5 12 4.5C14.21 4.5 16 6.29 16 8.5ZM4 18.5C4 15.84 9.33 14.5 12 14.5C14.67 14.5 20 15.84 20 18.5V19.5C20 20.05 19.55 20.5 19 20.5H5C4.45 20.5 4 20.05 4 19.5V18.5Z" fill="black"/>
</mask>
<g mask="url(#mask0_2950_10664)">
<rect y="0.5" width="24" height="24" fill="url(#paint0_linear_2950_10664)"/>
</g>
<defs>
<linearGradient id="paint0_linear_2950_10664" x1="24" y1="24.5583" x2="0" y2="0.558302" gradientUnits="userSpaceOnUse">
<stop stop-color="#2972FE"/>
<stop offset="1" stop-color="#6499FF"/>
</linearGradient>
</defs>
</svg>
