<svg width="24" height="25" viewBox="0 0 24 25" fill="none" xmlns="http://www.w3.org/2000/svg">
<mask id="mask0_2950_9713" style="mask-type:alpha" maskUnits="userSpaceOnUse" x="2" y="4" width="20" height="17">
<path d="M9.99766 19.8274V16.8274C9.99766 15.7228 10.8931 14.8274 11.9977 14.8274C13.1022 14.8274 13.9977 15.7228 13.9977 16.8274V19.8274C13.9977 20.3774 14.4477 20.8274 14.9977 20.8274H17.9977C18.5477 20.8274 18.9977 20.3774 18.9977 19.8274V14.5274C18.9977 13.5885 19.7588 12.8274 20.6977 12.8274C21.1577 12.8274 21.3777 12.2574 21.0277 11.9574L12.6677 4.42736C12.2877 4.08736 11.7077 4.08736 11.3277 4.42736L2.96766 11.9574C2.62766 12.2574 2.83766 12.8274 3.29766 12.8274C4.23654 12.8274 4.99766 13.5885 4.99766 14.5274V19.8274C4.99766 20.3774 5.44766 20.8274 5.99766 20.8274H8.99766C9.54766 20.8274 9.99766 20.3774 9.99766 19.8274Z" fill="black"/>
</mask>
<g mask="url(#mask0_2950_9713)">
<rect y="0.5" width="24" height="24" fill="url(#paint0_linear_2950_9713)"/>
</g>
<defs>
<linearGradient id="paint0_linear_2950_9713" x1="24" y1="24.5583" x2="0" y2="0.558302" gradientUnits="userSpaceOnUse">
<stop stop-color="#2972FE"/>
<stop offset="1" stop-color="#6499FF"/>
</linearGradient>
</defs>
</svg>
