<svg width="196" height="191" viewBox="0 0 196 191" fill="none" xmlns="http://www.w3.org/2000/svg">
<path d="M94.7902 185.359C95.5374 187.77 94.8401 190.4 93.3504 190.862C91.8606 191.323 90.4403 190.673 89.693 188.262C88.9458 185.851 89.5295 184.614 91.0193 184.152C92.509 183.69 94.0429 182.948 94.7902 185.359Z" fill="#2972FE" fill-opacity="0.2"/>
<path d="M190.196 179.428C186.755 182.549 181.826 183.43 179.897 181.304C177.969 179.177 177.95 176.303 181.391 173.182C184.832 170.061 187.35 170.073 189.279 172.199C191.207 174.326 193.638 176.307 190.196 179.428Z" fill="#2972FE" fill-opacity="0.2"/>
<path d="M21.4533 174.691C16.6815 179.019 8.39746 178.642 4.15923 173.969C-0.0790014 169.295 -1.27394 164.021 3.49783 159.694C8.26959 155.367 12.6875 156.405 16.9258 161.079C21.164 165.752 26.2251 170.364 21.4533 174.691Z" fill="#2972FE" fill-opacity="0.2"/>
<path d="M40.8601 102.938C41.6074 105.349 40.9101 107.979 39.4203 108.441C37.9306 108.903 36.5103 108.253 35.763 105.842C35.0158 103.43 35.5995 102.193 37.0893 101.731C38.579 101.27 40.1129 100.527 40.8601 102.938Z" fill="#2972FE" fill-opacity="0.2"/>
<rect x="56.4379" y="55.4891" width="80.1049" height="80.1049" rx="28.8" fill="url(#paint0_linear_2844_85428)"/>
<mask id="mask0_2844_85428" style="mask-type:alpha" maskUnits="userSpaceOnUse" x="81" y="85" width="31" height="21">
<path d="M104.835 93.0383V87.1973C104.835 86.2794 104.084 85.5285 103.166 85.5285H83.1395C82.2216 85.5285 81.4706 86.2794 81.4706 87.1973V103.886C81.4706 104.804 82.2216 105.555 83.1395 105.555H103.166C104.084 105.555 104.835 104.804 104.835 103.886V98.0448L108.656 101.867C109.708 102.918 111.51 102.167 111.51 100.682V90.3848C111.51 88.8995 109.708 88.1485 108.656 89.1999L104.835 93.0383Z" fill="black"/>
</mask>
<g mask="url(#mask0_2844_85428)">
<rect x="76.4641" y="75.5153" width="40.0524" height="40.0524" fill="white"/>
</g>
<path d="M171.94 62.6266C171.419 56.0474 176.949 49.5627 183.433 49.0494C189.917 48.5362 194.972 50.8675 195.493 57.4467C196.014 64.026 192.381 66.9599 185.897 67.4731C179.413 67.9863 172.461 69.2059 171.94 62.6266Z" fill="#2972FE" fill-opacity="0.6"/>
<path d="M8.30526 49.7538C6.99195 51.1519 3.92499 49.4627 2.33518 47.8729C0.745371 46.2831 -1.26642 43.1524 1.05025 40.8357C3.36693 38.519 6.46791 41.7251 8.05773 43.3149C9.64754 44.9048 9.61857 48.3556 8.30526 49.7538Z" fill="#2972FE" fill-opacity="0.5"/>
<path d="M72.5581 22.0269C69.1167 25.1477 64.1872 26.0288 62.259 23.9024C60.3307 21.776 60.3112 18.9012 63.7527 15.7804C67.1941 12.6595 69.712 12.6716 71.6403 14.798C73.5685 16.9243 75.9996 18.906 72.5581 22.0269Z" fill="#2972FE" fill-opacity="0.2"/>
<path d="M133.537 1.50229C134.158 3.81747 132.611 6.4984 130.329 7.10976C128.048 7.72113 126.089 7.2223 125.468 4.90713C124.848 2.59195 125.952 1.30436 128.233 0.692999C130.515 0.0816338 132.917 -0.812887 133.537 1.50229Z" fill="#2972FE" fill-opacity="0.1"/>
<defs>
<linearGradient id="paint0_linear_2844_85428" x1="136.617" y1="135.861" x2="56.5118" y2="55.7565" gradientUnits="userSpaceOnUse">
<stop stop-color="#2972FE"/>
<stop offset="1" stop-color="#6499FF"/>
</linearGradient>
</defs>
</svg>
